<?xml version="1.0" encoding="utf-8" ?>
<svg baseProfile="full" height="300mm" version="1.1" viewBox="0,0,200,300" width="200mm" xmlns="http://www.w3.org/2000/svg" xmlns:ev="http://www.w3.org/2001/xml-events" xmlns:xlink="http://www.w3.org/1999/xlink"><defs /><rect fill="#222222" height="300" width="200" x="0" y="0" /><text fill="#FFFFFF" style="font-size:12px; font-family:Arial; font-weight:bold;" x="10" y="20">Over 5km Records</text><text fill="#FFFFFF" style="font-size:4px; font-family:Arial" x="10" y="280">ATHLETE</text><text fill="#FFFFFF" style="font-size:9px; font-family:Arial" x="10" y="290">lolipop</text><text fill="#FFFFFF" style="font-size:4px; font-family:Arial" x="65" y="280">SPECIAL TRACKS</text><rect fill="yellow" height="2.6" width="2.6" x="65" y="283" /><text fill="#FFFFFF" style="font-size:3px; font-family:Arial" x="70" y="285.5">Over 20.0 km</text><rect fill="red" height="2.6" width="2.6" x="65" y="287" /><text fill="#FFFFFF" style="font-size:3px; font-family:Arial" x="70" y="289.5">Over 40.0 km</text><text fill="#FFFFFF" style="font-size:4px; font-family:Arial" x="120" y="280">STATISTICS</text><text fill="#FFFFFF" style="font-size:3px; font-family:Arial" x="120" y="285">Number: 9</text><text fill="#FFFFFF" style="font-size:3px; font-family:Arial" x="120" y="290">Weekly: 1.8</text><text fill="#FFFFFF" style="font-size:3px; font-family:Arial" x="141" y="285">Total: 59.5 km</text><text fill="#FFFFFF" style="font-size:3px; font-family:Arial" x="141" y="290">Avg: 6.6 km</text><text fill="#FFFFFF" style="font-size:3px; font-family:Arial" x="167" y="285">Min: 5.1 km</text><text fill="#FFFFFF" style="font-size:3px; font-family:Arial" x="167" y="290">Max: 9.0 km</text><polyline fill="none" points="13.0,70.03215632180218 13.600953895132989,69.93233677302487 14.287758346181363,71.3298095164937 15.146263910923153,72.82709949370474 15.918918918818235,73.42601483367616 16.691573926713318,73.32619563629851 17.550079491455108,73.32619563629851 18.06518283020705,74.22456804150715 18.151033386122435,75.2227586209774 17.80763116059825,76.22094816691242 17.893481716979295,76.72004255268257 18.408585055265576,77.11931787501089 19.009538950864226,77.31895547406748 21.069952305406332,77.21913667966146 21.499205087777227,77.01949906005757 22.615262320730835,76.52040482935263 23.731319554615766,75.62203456345014 23.38791732909158,75.72185352310771 22.443561208434403,76.12112925894326 29.311605723574758,72.72728023439413 32.0588235296309,72.82709949370474 33.08903020666912,72.42782239394728 34.46263910969719,71.52944831427885 37.38155802851543,70.53125391097274 40.21462639095262,69.93233677302487 40.9872813988477,70.63107339799171 42.27503974549472,74.02492980152601 43.305246422532946,77.21913667966146 44.163751987274736,80.11387752229348 45.022257551550865,81.41151714778971 45.880763115826994,81.51133550802479 48.627980921883136,80.51315143925603 51.54689984070137,79.41514776990516 54.12241653399542,78.31714285007911 56.783783783670515,77.51859303197125 59.44515103334561,76.6202236963436 62.2782193957828,75.72185352310771 64.93958664499223,74.6238443973707 66.22734499210492,73.92511066619772 66.82829888677225,73.12655721028568 66.7424483303912,72.12836446036818 65.54054054059088,69.63287806435255 64.510333863087,67.13738520909101 63.82352941157296,64.34242554270895 62.96502384683117,61.447637345816474 61.8489666134119,58.55284045753069 60.81875993637368,55.857676920015365 59.7885532588698,53.26232713344507 58.758346581831574,50.56714880553773 57.899841017555445,47.87196294293972 57.47058823518455,46.77392209804384 57.041335452813655,46.27481220959453 55.58187599340454,45.775702062877826 52.6629570745863,46.07516818185104 51.28934817155823,45.97534615267068 50.860095389653,45.675880002381746 50.00158982491121,42.78103575541172 48.971383147872984,40.28547339310171 48.54213036550209,38.88795564847533 48.112877583131194,38.58848729688907 45.19395866431296,39.18742390704574 42.27503974549472,40.085828125302214 40.815580286085606,40.684763805242255 40.47217806009576,40.98423150571762 40.12877583503723,41.882634049106855 40.38632750371471,42.88085811556084 41.158982512075454,44.57783665630268 42.27503974549472,47.27303172793472 43.305246422532946,50.167862486385275 43.906200317665935,53.0626845525112 43.82034976128489,54.060897042567376 43.56279809214175,54.460181749018375 40.901430842932314,55.358571734512225 37.72496025450528,56.656244679761585 36.78060413338244,57.05552831129171 36.351351351011544,57.354990926687606 36.608903020620346,58.7524819013197 37.63910969812423,61.447637345816474 38.4976152619347,63.34422369796084 39.35612082667649,66.23900619993219 40.38632750371471,69.03396036830964 41.158982512075454,71.72908707120223 42.18918918911368,74.72366346034687 43.2193958661519,77.51859303197125 44.24960254365578,80.31351450149668 44.85055643832311,81.11206200474408 47.9411764703691,80.81260676839156 50.77424483280629,79.91424050182104 51.718600953463465,79.6147848936962 54.46581875998527,78.71641751105199 57.1271860091947,77.51859303197125 59.96025437163189,76.52040482935263 62.79332273453474,75.52221559319878 65.45468998374417,74.42420624004444 66.65659777401015,73.62565319758141 66.82829888677225,73.22637642832706 65.96979332249612,70.23179538862314 64.85373608861119,67.33702487515984 64.16693163709715,64.64188589440892 63.05087440367788,61.846918993396685 62.106518283020705,59.051943989354186 60.99046104867011,56.157139907358214 59.96025437163189,53.36214840813773 59.10174880735576,50.56714880553773 58.07154212985188,47.87196294293972 57.47058823518455,46.57427817390999 57.1271860091947,46.17499020078685 55.58187599340454,45.775702062877826 52.577106518205255,46.17499020078685 51.54689984070137,46.17499020078685 50.94594594556838,45.47623585059773 50.00158982491121,42.48156861303141 48.71383147826418,39.78636014525546 48.45627980912104,38.788132875051815 48.02702702675015,38.488664491975214 45.10810810793191,39.28724663943285 42.27503974549472,40.38529601157643 40.815580286085606,40.88440894935047 40.21462639095262,41.682989111868665 40.12877583503723,42.68121338513447 40.300476947333664,43.080502804834396 40.901430842932314,43.87908114818856 41.931637519504875,46.27481220959453 42.790143084246665,48.87018080748385 43.648648648522794,51.7650067700888 44.42130365641788,53.561790926614776 44.42130365641788,53.96107584028505 44.07790143089369,54.26053941639839 41.931637519504875,54.95928739971714 39.441971383057535,56.157139907358214 37.81081081088632,56.656244679761585 37.03815580252558,57.15534919354832 36.78060413338244,58.053736667265184 37.72496025450528,60.748894065094646 38.583465818781406,63.54386414954206 39.441971383057535,66.33882613125024 40.300476947333664,69.03396036830964 41.24483306799084,71.82890643400606 42.10333863273263,74.6238443973707 43.04769475385547,77.51859303197125 44.163751987274736,80.51315143925603 44.42130365641788,81.01224360283231 44.764705881942064,81.31169877690263 47.855325913988054,80.61296989256516 50.860095389653,79.81442197627621 53.17806041287258,79.01587339845719 55.667726549785584,77.91786802362185 58.24324324307963,77.11931787501089 61.07631160551682,76.22094816691242 63.82352941157296,75.2227586209774 66.48489666124806,74.22456804150715 66.82829888677225,73.92511066619772 67.0,73.52583402069286 67.0,73.02673798194155 66.31319554848596,71.72908707120223 65.88394276611507,69.73269764432916 66.22734499210492,68.93414071603911 65.28298887098208,68.83432105334941 64.3386327503249,66.13918625819497 64.08108108118176,64.54206578759477 63.05087440367788,62.645481791871134 62.364069952163845,59.950329695944674 61.16216216236353,57.255170065152925 60.21780604124069,54.460181749018375 59.18759936420247,51.7650067700888 58.414944355841726,49.069824256468564 57.642289347946644,47.073387906944845 57.29888712242246,46.67410014104098 55.15262321103364,45.97534615267068 52.319554849062115,46.07516818185104 51.37519872840494,45.87552411307115 50.77424483280629,44.57783665630268 50.602543720044196,42.78103575541172 50.25914149405435,41.98245650244644 49.228934817016125,40.684763805242255 48.54213036550209,39.48689207294956 48.45627980912104,39.087601164355874 47.855325913988054,38.788132875051815 46.138314785435796,39.18742390704574 45.79491255944595,39.88618281565141 44.24960254365578,39.98600547562819 42.61844197148457,40.085828125302214 40.64387917332351,41.18387658771826 40.300476947333664,41.98245650244644 40.815580286085606,44.3781922768685 41.24483306799084,45.07694742298918 42.01748807635158,47.47267550759716 42.44674085825682,48.27125021291431 43.4769475357607,51.56536387943197 44.24960254365578,53.661612170632 43.99205087451264,54.36036058800528 40.64387917332351,55.45839279226493 38.325914149172604,56.35678184736753 37.03815580252558,56.7560656031128 36.52305246377364,57.354990926687606 37.209856915753335,60.24979141168296 38.15421303687617,62.8451223881566 39.01271860068664,65.44044637773186 39.957074721343815,68.03576338110724 40.815580286085606,70.63107339799171 41.58823529444635,73.22637642832706 42.790143084246665,76.22094816691242 43.82034976128489,78.91605477960547 44.42130365641788,80.61296989256516 45.10810810793191,81.21188039594563 46.395866454578936,81.01224360283231 49.40063592977822,80.01405901706312 52.40540540544316,79.11569200671511 55.667726549785584,77.8180492912652 58.50079491222277,76.81986139848595 61.76311605703086,75.62203456345014 64.59618441946805,74.52402532380074 66.48489666124806,73.52583402069286 66.5707472176291,72.72728023439413 65.79809220973402,70.33161490649218 64.7678855326958,68.13558312621899 64.59618441946805,67.23720504745143 63.82352941157296,65.14098627405474 63.30842607328668,62.445841154200025 61.8489666134119,59.55104726285208 61.248012718278915,58.45301971997833 60.81875993637368,56.157139907358214 60.21780604124069,54.460181749018375 59.7885532588698,54.36036058800528 58.84419713821262,51.7650067700888 58.58664546860382,49.668754355283454 57.642289347946644,47.073387906944845 57.29888712242246,46.27481220959453 56.86963434005156,46.07516818185104 53.34976152610034,46.07516818185104 51.54689984070137,46.07516818185104 50.77424483280629,44.97712529049022 49.74403815576807,42.08227894513402 48.54213036550209,39.68653746478958 48.45627980912104,39.28724663943285 47.9411764703691,38.688310090918094 45.79491255944595,38.98777841159608 42.87599364016205,39.98600547562819 40.12877583503723,41.0840540517238 39.699523052666336,41.78281158581376 39.87122416496277,42.5813910040888 41.58823529444635,45.47623585059773 42.27503974549472,47.971784776076674 43.56279809214175,51.166077973961364 44.33545310003683,53.661612170632 43.906200317665935,54.36036058800528 40.901430842932314,55.55821383954026 38.15421303687617,56.7560656031128 36.78060413338244,57.4548117776867 36.78060413338244,58.95212330354843 37.98251192364842,62.04655975487549 38.92686804430559,64.94134615315124 39.87122416496277,67.83612385962624 40.558028616942465,69.43323887360748 41.24483306799084,72.42782239394728 42.532591415103525,75.2227586209774 43.56279809214175,78.31714285007911 43.56279809214175,78.81623615033459 44.59300476917997,80.81260676839156 45.36565977754071,81.31169877690263 46.22416534181684,81.11206200474408 47.855325913988054,80.31351450149668 50.602543720044196,79.6147848936962 53.34976152610034,78.61659886117559 56.182829888537526,77.8180492912652 58.93004769459367,76.91968023421941 61.76311605703086,75.82167247269535 64.7678855326958,74.92330155568197 66.5707472176291,74.22456804150715 66.7424483303912,73.32619563629851 66.65659777401015,71.92872578656534 65.36883942736313,68.93414071603911 65.02543720183894,68.03576338110724 64.59618441946805,66.13918625819497 63.65182829881087,63.44404392875731 62.70747217768803,60.64907355548348 61.76311605703086,57.95391587802442 60.56120826676488,54.75964517064858 59.53100158972666,52.16429242771119 58.84419713821262,49.369289352500346 57.8139904611744,46.87374404456932 56.01112877577543,45.87552411307115 53.00635930057615,45.775702062877826 51.54689984070137,45.87552411307115 51.03179650241509,45.27659165771911 50.1732909376733,42.5813910040888 49.05723370425403,39.78636014525546 48.627980921883136,38.88795564847533 48.1987281399779,38.688310090918094 46.138314785435796,38.788132875051815 43.2193958661519,39.38706936122617 40.901430842932314,40.58494121785043 40.558028616942465,40.88440894935047 40.38632750371471,41.882634049106855 41.158982512075454,44.87730314716464 42.27503974549472,47.67231924587395 42.790143084246665,50.56714880553773 43.73449920490384,53.46196967252763 43.906200317665935,53.96107584028505 43.73449920490384,54.460181749018375 41.330683624371886,55.358571734512225 40.47217806009576,55.95749792602146 39.09856915753335,56.157139907358214 37.12400635937229,56.55642374581657 36.69475357700139,56.855886516103055 36.43720190785825,57.354990926687606 37.209856915753335,60.449432504188735 38.325914149172604,63.244403456745204 38.92686804430559,66.13918625819497 39.78537360858172,69.13378001004457 39.87122416496277,69.63287806435255 39.699523052666336,70.03215632180218 36.95230524614453,71.03035124216694 34.2909379969351,71.92872578656534 31.372019077651203,73.12655721028568 29.8267090623267,73.92511066619772 28.62480127159506,74.32438714586897 26.478537360671908,75.12293960957322 23.90302066784352,75.92149141198024 21.41335453093052,76.6202236963436 20.383147853426635,77.11931787501089 19.43879173276946,77.31895547406748 19.009538950864226,77.21913667966146 18.58028616849333,76.32076706492808 18.06518283020705,73.62565319758141 18.32273449935019,72.72728023439413 18.32273449935019,72.72728023439413" stroke="#4dd2ff" stroke-linecap="round" stroke-linejoin="round" stroke-width="0.5"><title>2020-10-26 7.5km</title><desc>9223370433130799564</desc></polyline><polyline fill="none" points="107.9635156323202,47.73722573474515 107.73066429817118,47.78930009150645 106.706118427217,48.726637736777775 106.0541346911341,48.41419201873941 105.68157255626284,47.997597473382484 104.98301855335012,48.36211771646049 105.26244015456177,50.3930121344747 104.6570266855415,52.26767776615452 104.7501672192011,54.35063266713405 103.25991867971607,56.01699134975206 102.70107547752559,56.85016894468572 102.14223227556795,58.0478596984176 102.18880254216492,58.09993315482279 102.18880254216492,58.09993315482279 102.23537280899473,58.20408005412901 102.37508360971697,58.0478596984176 102.51479441020638,57.9957862374722 102.93392681190744,57.891639301669784 102.93392681190744,57.891639301669784 104.14475375018083,57.891639301669784 104.14475375018083,58.09993315482279 103.865332149202,58.5685940583935 103.35305921384133,58.51652064285008 103.35305921384133,58.51652064285008 102.51479441020638,58.36030036903685 101.9559512080159,58.36030036903685 101.81624040729366,58.464447222766466 102.09566200850531,58.5685940583935 102.18880254216492,58.464447222766466 101.81624040729366,59.03725459380075 101.25739720510319,59.97457455919357 101.3971080055926,60.755673405190464 101.21082693827339,61.17225903808139 100.79169453657232,61.432624910841696 99.67400813219137,61.9012831953587 99.81371893244796,62.68237951770425 99.62743786536157,62.83859865949489 99.72057839902118,62.52616033522645 100.51227293536067,62.005429430748336 101.72309987363406,61.64091752708191 101.58338907314464,60.443233989644796 101.35053773899563,59.349694745847955 101.53681880631484,59.24554804665968 102.28194307605736,58.985181219060905 102.51479441020638,57.94371277181199 102.56136467726901,56.7460218090564 104.09818348335102,55.235886297014076 104.93644828675315,53.673673122306354 104.61045641871169,52.52804752672091 105.07615908747539,50.80960500641959 104.79673748626374,48.67456346179824 103.16677814628929,47.47685388237005 103.72562134847976,45.862545860465616 104.56388615188189,44.664830633148085 104.47074561798945,43.5712624550215 103.58591054799035,43.83163601270644 102.98049707873724,42.99844022799516 102.70107547752559,41.07167051680153 100.93140533729456,38.6762184103718 99.25487573049031,37.89509064273443 98.74260279512964,37.79094019642798 98.27690012636594,37.8430154218222 97.29892452247441,37.79094019642798 96.27437865175307,37.89509064273443 94.36499771056697,37.8430154218222 92.82817890448496,37.42641349101905 91.71049249987118,35.76000285707414 90.73251689597964,34.45811630884418 90.03396289306693,33.1562269180431 88.91627648868598,33.4686806309619 87.93830088479444,33.676983015437145 87.98487115162425,33.78113418031717 87.7985900840722,33.4166050235508 88.03144141822122,33.83320975600509 87.65887928358279,33.260378173785284 87.89173061773181,33.4686806309619 87.7985900840722,33.260378173785284 87.7520198172424,33.3124537949916 87.42602794920094,33.0520756439073 87.37945768237114,33.0 87.33288741554134,33.0 86.30834154458717,33.93736089352751 85.28379567409866,34.562267337343656 84.35239033680409,34.87472031346988 83.79354713461362,35.23924857896054 83.0018525980413,35.96830444101943 82.44300939561799,36.176605952263344 81.41846352489665,36.59320875618141 79.04337991541252,38.10339148080675 77.7859827100765,38.936594105442055 78.15854484518059,40.03017078345874 78.48453671298921,40.60299586184556 78.39139617956243,40.342620894429274 78.57767724664882,40.394695897062775 78.53110698005185,40.342620894429274 78.53110698005185,40.342620894429274 78.53110698005185,40.186395859345794 78.53110698005185,40.13432083866792 78.48453671298921,40.29054588719737 78.67081778054126,41.279970245144796 79.92821498564444,42.4256174506736 81.09247165708803,42.165243279072456 81.2321824573446,42.11316843115492 81.46503379172646,42.061093578638975 82.30329859512858,41.019595573307015 82.86214179755189,40.96752062521409 84.72495247167535,40.23847087559989 85.23722540703602,39.87394566641888 86.4480523453094,39.82187061844161 86.68090367945842,40.550920877431054 86.4480523453094,41.95694385992829 86.21520101116039,42.52976708748611 85.65635780873708,43.1025897647487 85.004374072887,44.612756003509276 85.0509443397168,45.02935291355243 85.09751460631378,45.08142750686966 85.14408487337641,45.133502095530275 85.19065514020622,45.341800405061804 85.28379567409866,45.341800405061804 85.33036594069563,45.341800405061804 85.51664700824767,45.44594953261549 87.05346581432968,44.76897987892153 88.17115221894346,44.24823346850462 88.45057382015511,44.560681369388476 88.59028462064452,44.925203713413794 88.54371435358189,46.070843915396836 87.14660634822212,48.882860534242354 86.40148207824677,49.55982551764464 85.98234967677854,49.976418971666135 84.3989606036339,51.122049469384365 82.72243099682964,52.16352983022807 82.21015806146897,52.63219539896818 81.6047445924487,53.1529344880837 81.2321824573446,54.090263702499215 81.32532299146987,54.9755177188199 83.37441473267972,55.02759144350421 85.19065514020622,55.86077042098623 85.51664700824767,55.9649177112733 85.74949834239669,56.06906498345779 86.16863074409775,56.173212237423286 87.14660634822212,57.73541886406019 87.14660634822212,58.93310783983907 86.54119287896901,61.849210070911795 86.54119287896901,62.63030646141851 86.96032528090291,63.567620779853314 88.21772248577327,64.24456909351284 88.54371435358189,64.7652980426792 88.68342515430413,64.66115228936542 87.98487115162425,66.58784578455379 87.10003608115949,68.5666055980837 86.12206047726795,70.07670735463034 86.21520101116039,70.70157592848409 86.02891994360834,72.62824991013622 85.93577940994874,72.62824991013622 85.28379567409866,73.20104367734166 85.14408487337641,74.29455752362264 85.74949834239669,75.12770958454348 85.8892091428861,77.31472820736235 85.74949834239669,78.72066451580031 86.35491181141697,79.71002511656843 86.68090367945842,80.8035270292894 87.42602794920094,80.95974142453633 88.72999542113394,80.49109811609378 88.91627648868598,80.43902661453467 89.61483049136586,81.06388433196116 90.12710342672653,80.90766996401362 91.85020330059342,80.17866903898539 92.5021870364435,79.76209668174852 92.36247623595409,79.71002511656843 92.12962490157224,79.60588197270408 92.12962490157224,79.65795354696456 92.26933570206165,79.55381039401982 92.36247623595409,79.76209668174852 92.36247623595409,79.71002511656843 93.34045183984563,79.55381039401982 94.27185717690736,79.50173881079536 96.83322185394354,78.56444953405298 98.23032985953614,77.83544574503321 98.92888386244886,77.88751747383503 99.06859466293827,77.67923053144477 99.67400813219137,77.52301527705276 100.60541346902028,77.26265642850194 101.21082693827339,77.62715878442395 101.07111613778397,78.46030619030353 100.51227293536067,79.50173881079536 101.07111613778397,81.01181288063526 102.09566200850531,82.41774047433864 103.63248081482016,83.92780716135167 104.23789428384043,85.07337244279915 104.6570266855415,85.80236738541862 104.88987801992334,85.80236738541862 104.84330775309354,85.85443841881352 105.21586988773197,86.47929046308855 105.16929962090217,87.0 106.1938454916235,86.63550337188644 106.89239949453622,84.5005900770775 107.59095349744894,83.0946673930157 107.40467242989689,82.4698118029628 107.82380483159795,81.68874139484251 108.38264803402126,80.69938407628797 108.66206963500008,80.43902661453467 109.12777230353095,80.69938407628797 109.12777230353095,80.95974142453633 109.22091283742338,81.11595577886328 109.22091283742338,81.1680272212252 109.08120203670114,81.11595577886328 109.12777230353095,80.85559849895071 109.5003344384022,80.95974142453633 109.64004523889162,80.90766996401362 110.05917764059268,80.90766996401362 110.7577316435054,80.85559849895071 111.08372351154685,81.01181288063526 111.22343431226909,81.89702693722211 111.22343431226909,82.99052484019194 111.3165748459287,82.93845355696976 112.89996391907334,83.87573596002767 113.17938552005216,83.77159354346804 112.6671125846915,83.40709494252224 112.62054231786169,82.8343109767302 113.31909632054158,82.20945511391619 113.92450978979468,80.64731259294786 113.73822872224264,78.92895109456731 113.73822872224264,77.41887175128795 113.17938552005216,75.96086048177676 112.99310445250012,74.50284564797767 113.13281525322236,74.39870159485145 113.59851792198606,74.34662956156535 113.50537738786079,72.47203333274228 113.83136925613508,71.63887756183976 114.76277459319681,71.48266072530532 115.13533672806807,70.28499695187202 115.32161779538728,69.60805549443467 116.29959339927882,68.46246050845366 116.9515771351289,68.20209770457586 117.41727980365977,67.88966219022404 117.83641220559366,67.31686332181562 118.39525540778413,66.63991849531885 118.860958076315,65.49431780789746 120.02521474775858,65.07773519412149 120.53748768311925,65.44224499707343 121.51546328701079,67.16064535302576 122.26058755675331,67.52515388309257 122.35372809041291,68.20209770457586" stroke="#4dd2ff" stroke-linecap="round" stroke-linejoin="round" stroke-width="0.5"><title>2020-05-24 5.1km</title><desc>9223370446542136631</desc></polyline><polyline fill="none" points="154.68043331080116,45.39901830998133 155.19228165200911,45.484036976180505 155.9966147596715,46.886842426261865 156.72782667574938,47.05687912480789 158.08056872047018,47.18440660243505 158.73865944484714,47.18440660243505 159.36018957349006,48.37466115105781 160.2010832768865,50.03250995097915 160.23764387262054,51.052721270156326 160.4935680432245,51.945404094818514 160.74949221406132,53.050627760443604 159.68923493556213,53.73076392195071 158.3730534868082,54.453407359396806 156.98375084635336,55.13354119745782 155.7406905889511,55.34608279084205 155.19228165200911,55.38859109627083 152.99864590377547,56.57882186290226 150.58564658090472,57.42898458390846 149.78131347324234,58.066605469590286 148.75761679071002,58.61920943620498 148.24576844950207,58.66171740277787 146.6371022342937,59.21432056854246 145.2843601894565,59.68190728180343 142.9810426540207,60.57457134666038 142.28639133367687,60.36203245964134 141.5551794177154,60.659586870722705 140.860528097488,60.61707911096164 140.42180094774812,60.702094626176404 139.1787406904623,61.72227943583857 138.81313473265618,62.06234047590988 137.86255924170837,62.48741637985222 136.91198375076056,62.31738607113948 136.10765064309817,62.06234047590988 135.19363574811723,61.89230999108986 133.65809072437696,61.29720273974817 133.0,60.40454024588689 133.4752877453575,59.72441513836384 133.84089370339643,59.21432056854246 134.24306025716942,58.91676511018886 134.60866621520836,58.61920943620498 134.9742721732473,58.32165354661993 135.41299932275433,56.918887162581086 135.92484766396228,55.89869041877682 136.1442112388322,55.38859109627083 137.02166553819552,54.283373723737895 137.86255924170837,53.050627760443604 139.1787406904623,51.86038676655153 140.1293161814101,50.45759830871248 140.75084631005302,49.35236766349408 141.29925524711143,48.587206243071705 142.32295192952733,47.39695231063524 143.09072444133926,46.63178724620957 143.74881516571622,46.92935160745401 144.15098171972204,47.737025214824826 144.99187542311847,48.71473324557883 145.6134055517614,49.18233191539184 146.05213270126842,48.84226020830101 145.86932972236536,48.24713404310751 145.46716316859238,47.949570636992576 144.84563303994946,47.737025214824826 144.37034529447556,47.7795343080943 143.63913337828126,47.35444317787187 142.9810426540207,46.71680565713905 142.5788761001313,45.951639325357974 143.1272850370733,45.313999626174336 143.60257278266363,45.18647156760562 144.26066350692417,44.80388715394656 144.77251184824854,43.95369829170522 144.99187542311847,43.52860320039326 145.54028436006047,42.63590207605739 146.12525389296934,41.44563089104486 146.81990521331318,40.46790555026382 148.3920108327875,38.6824880510685 149.05010155716445,37.74726626215852 149.9641164521454,36.68451164360158 150.0372376438463,37.024593420821475 150.25660121871624,36.64200140157482 150.6953283683397,35.83430596796097 150.95125253882725,35.791795637924224 151.02437373052817,36.259409025806235 151.49966147600207,36.55698090442456 152.267433987814,36.89706278726226 153.40081245754845,38.427427774469834 155.0460392688401,39.915277154010255 156.50846310087945,41.65817957001855 158.2268111036392,43.57111272925977 158.81178063643165,43.741150801070035 159.21394719020464,44.16624567232793 159.7257955314126,43.78366030799225 161.18821936356835,42.84845013884478 161.8828706839122,42.76343092691968 162.5775220040232,42.63590207605739 164.44211239006836,42.25331528575043 165.10020311444532,42.040766914898995 165.64861205138732,43.52860320039326 165.86797562625725,44.208755135245156 166.27014218003023,45.484036976180505 166.67230873380322,46.07916714635212 167.14759647939354,47.652007015247364 167.62288422475103,48.71473324557883 168.6831415030174,48.587206243071705 170.5111712932121,47.694516117247986 172.11983750842046,47.269424898928264 173.03385240363423,47.01436995662516 174.3865944481222,46.46175037170178 175.95870006782934,46.249204179417575 176.72647257964127,45.994148603407666 177.6404874746222,46.20669492770685 177.67704807047267,46.92935160745401 177.93297224107664,47.609497908793855 177.82329045352526,48.75724223747966 175.95870006782934,49.224840859067626 175.92213947186247,50.20254534695414 176.17806364246644,51.562825978937326 177.3114421123173,53.603238477604464 177.45768449560273,54.36839055042947 177.3114421123173,55.21855784804211 177.6404874746222,56.918887162581086 177.60392687888816,57.5140007591981 178.3716993907001,58.066605469590286 178.6641841570381,57.981589408562286 178.40825998655055,58.44917752567562 178.77386594447307,59.55438368546311 179.35883547749836,60.36203245964134 179.90724441444036,61.67977178611909 180.2728503724793,62.86998431727989 180.67501692625228,64.31523775294772 180.8943805011222,64.82532598625403 181.40622884233017,65.9305149850843 181.47935003379826,67.63079994436703 182.35680433316156,69.58611894430942 183.23425863240846,71.07385542470729 184.03859174007084,73.62424828042276 184.6966824643314,75.06946386792697 184.2945159105584,75.5795387433318 184.36763710225932,76.64219269889873 184.87948544346727,78.34243330842583 185.5741367636947,80.00016112549929 186.30534867977258,81.74289341043914 186.5978334461106,83.14557500003139 187.0,84.250714696449 186.56127285037655,83.99568272271426 185.9763033175841,82.38047654504771 185.5741367636947,81.44535427552182 185.1719702099217,80.21268984882045 184.5504400812788,78.46995107043767 184.18483412312344,77.19477166907745 183.38050101557747,76.04710682245786 183.6729857819155,74.68690729566151 183.70954637788236,74.13432495092275 183.52674339874648,72.77411908839713 183.5998645904474,71.88148154274677 183.2708192281425,71.41390872068587 182.8686526743695,71.0313487429521 182.90521327010356,70.43625473603606 182.10088016244117,68.94851594557986 181.18686526746023,67.75832103256835 180.56533513881732,67.07820810479461 180.23628977651242,66.73815121856751 180.05348679760937,66.3130797148333 180.0900473933434,65.63296439341502 180.4190927556483,64.44275987058063 180.3459715639474,63.50759675411973 179.6147596478695,62.86998431727989 179.65132024383638,62.18986329322797 179.57819905213546,61.55224881021422 179.0663507109275,60.872125603840686 179.0663507109275,59.85193868188071 179.13947190262843,59.384352162189316 179.02979011519346,58.87425716989674 177.96953283681069,57.72654112041346 177.12863913341425,56.40878910743049 176.72647257964127,55.006016188679496 176.54366960050538,53.77327239472652 176.06838185503148,52.37049047209439 175.6662153012585,51.43529986112844 174.89844278944656,50.3300718475366 173.94786729861517,50.160036504559685 171.42518618830945,51.09523002005881 170.80365605966654,51.265264975780156 170.32836831407622,51.64784336890443 169.77995937713422,51.86038676655153 167.44008124573156,52.58303349564085 165.86797562625725,52.88059354381403 164.8808395395754,52.83808497877908 163.27217332425062,53.39069598203059 162.0291130670812,52.92310210459982 160.96885578869842,53.09313630347606 160.53012863907497,52.75306783532142 160.31076506420504,51.732860741059994 159.83547731884755,50.160036504559685 159.50643195665907,49.60742115328321 159.57955314824358,48.07709783743485 158.81178063643165,47.09938828839222 158.19025050778873,47.05687912480789 157.4224779958604,47.31193404059741 156.6912660797825,47.05687912480789 156.471902505029,46.37673190800706 155.96005416382104,45.484036976180505 154.89979688543826,45.35650897034793 154.68043331080116,45.10145283979364 154.89979688543826,44.718868346797535 155.19228165200911,44.463811820256524 154.31482735276222,44.16624567232793 153.32769126608036,44.506321252469206" stroke="#4dd2ff" stroke-linecap="round" stroke-linejoin="round" stroke-width="0.5"><title>2019-10-31 6.2km</title><desc>9223370464325814232</desc></polyline><polyline fill="none" points="54.9779860873532,176.62419870463054 54.92623748499318,176.67681100277696 54.88742603326682,176.7294232629065 54.855083156813635,176.81209959486296 54.880957457993645,176.6918430809892 54.848614581511356,176.66177892148698 54.816271705087274,176.58661846836912 54.62221444633906,176.46636158193724 54.551060118101304,176.57910241877107 54.33112855820218,176.64674683707563 54.298785681748996,176.64674683707563 54.25997422999353,176.63923079368396 54.227631353540346,176.6317147495356 54.15000845002942,176.62419870463054 53.930076890130294,176.67681100277696 53.76836250783526,176.84216369226488 53.71661390553345,176.8947758328868 53.68427102905116,176.9173238814983 53.56136809851159,176.9173238814983 53.509619496180676,176.9173238814983 53.509619496180676,176.93987192313216 53.477276619756594,176.96241995778837 53.373779415065655,177.0 53.32849938803702,176.99248399309 53.29615651158383,176.93987192313216 53.18619073161972,176.86471175720362 53.0503506505047,176.73693929698493 52.97272774699377,176.71439119247225 52.99860204817378,176.67681100277696 53.06975637638243,176.63923079368396 53.18619073161972,176.45132945715886 53.25087648452609,176.36865271542774 53.25734505982837,176.29349195960094 53.3608422644902,176.15068630968744 53.373779415065655,175.94775148307963 53.399653716245666,175.89513865789195 53.43199659266975,175.85004192030465 53.45140231854748,175.67717083406023 53.47080804442521,175.60200936414185 53.52255664678523,175.52684781658172 53.52902522205841,175.48175085079856 53.496682345634326,175.4441700246316 53.41259086682112,175.39155683539866 53.38671656567021,175.3464597857892 53.29615651158383,175.25626560270757 53.10856782813789,175.14352271667303 53.02447634935379,175.09842551335896 52.959790596418316,175.07587690124637 52.933916295238305,175.0533282821125 52.95332202111604,175.01574723472004 52.933916295238305,174.98568238282314 52.91451056938968,174.9481013005061 52.87569911763421,174.91052019876952 52.79160763885011,174.82032547542622 52.584613229497336,174.68503318083094 52.49405317544006,174.63241944278707 52.43583599780686,174.5948381780472 52.416430271958234,174.56477315226948 52.37115024490049,174.519675590338 52.287058766087284,174.42948038259783 52.12534438382136,174.40693156320776 52.08006435679272,174.39189901305508 52.041252905037254,174.36935018202348 51.950692850979976,174.2791547879824 51.931287125102244,174.2415733408052 51.924818549799966,174.15137778841745 51.905412823922234,174.09876366455137 51.71135556517402,173.97850266720343 51.62726408636081,173.88830678875092 51.49789258054807,173.7905944609447 51.34911534882849,173.62523483812402 51.19386954186484,173.46739121125574 51.01274943369208,173.29451446521125 50.85103505139705,173.1141209010384 50.68932066913112,172.97882543445303 50.59229203974246,172.88111188547919 50.5534805880161,172.83601328018267 50.378829055145616,172.6781679414853 50.23005182342604,172.52783872916189 50.11361746818875,172.39254217255075 49.93249736001599,172.27979484990647 49.79018870362779,172.1144317940125 49.7578458271455,172.06181619743438 49.60906859545503,171.9190022434923 49.44088563788682,171.76115491569362 49.31151413204498,171.64840661476046 49.285639830864966,171.6183403716932 49.09805114741903,171.51310842305247 48.91046246397309,171.392843152571 48.86518243694445,171.36277680388594 48.806965259311255,171.34022703423398 48.76815380755579,171.34022703423398 48.645250877016224,171.27257768332493 48.61290800056304,171.24251128494507 48.4253193171171,171.11472895326733 48.341227838333,171.09217910675216 48.13423342900933,171.00197965074767 48.07601625137613,170.97942976928607 47.99839334789431,170.91178008292627 47.86255326675018,170.88923017351772 47.77846178796608,170.82158040331706 47.720244610332884,170.82909704756457 47.66202743269969,170.85164697561413 47.45503302340512,170.80654711250827 47.36447296931874,170.7689638719021 47.235101463506,170.7689638719021 47.235101463506,170.7689638719021 47.17041571057052,170.74641391821206 47.11219853293733,170.7238639575662 47.008701328304596,170.73138061189093 46.801706918980926,170.6411807086406 46.69174113901681,170.58856404678227 46.63352396138362,170.58856404678227 46.575306783779524,170.52091399705387 46.432998127362225,170.46829724823328 46.38771810030448,170.4457472013819 46.329500922671286,170.43823051752406 46.23894086861401,170.40064708668797 46.12250651337672,170.37809701887454 46.019009308714885,170.37809701887454 45.96079213111079,170.36306363643962 45.9025749534776,170.33299686225655 45.81201489936211,170.29541337706178 45.760266297031194,170.2578298724402 45.66323766767164,170.21272964129457 45.61148906534072,170.21272964129457 45.482117559498874,170.06239533555345 45.45624325834797,170.0398451629153 45.417431806592504,170.0398451629153 45.32687175250612,169.96467787025904 45.29452887608204,169.9571611367137 45.17162594551337,169.85944353010564 45.00991156321834,169.70910849444772 44.9646315361897,169.65649115858832 44.854665756225586,169.58884024227882 44.71235709980829,169.4986389226833 44.49889411521144,169.513672483743 44.47301981403143,169.5362228194499 44.46655123875826,169.5738066967824 44.414802636398235,169.6189073239657 44.330711157643236,169.66400792319473 44.22074537767912,169.821859800315 44.168996775348205,169.8519267856973 44.10431102241273,169.94212766733108 44.046093844779534,170.04736188789684 43.871442311938154,170.20521293337515 43.74853938139859,170.31796347052295 43.729133655520855,170.36306363643962 43.696790779038565,170.40064708668797 43.56741927325493,170.43071383292408 43.50920209562173,170.46078056671104 43.47685921913944,170.50588064413023 43.47685921913944,170.56601403719833 43.43804776741308,170.59608071510593 43.308676261571236,170.76144722144818 43.25692765924032,170.85916361674026 43.17283618048532,171.03204614850983 43.062870400521206,171.22747808111308 42.99818464758573,171.4003597377814 42.91409316880163,171.44545923286205 43.55448212265037,123.03760794444679 43.5738878485281,123.0 43.60623072498129,123.02256476901675 43.60623072498129,123.07521586940129 43.56741927325493,123.13538850883197 43.496264945017174,123.18803952742746 43.35395628862898,123.24069050785329 43.22458478278713,123.30838456946367 43.15989902988076,123.33094924264879 43.02405894876574,123.35351390881988 42.978778921708,123.38360011947952 42.91409316880163,123.39864322014182 42.7523787865066,123.48890175863198 42.70709875947796,123.4964232984421 42.500104350125184,123.53403098583658 42.29310994083062,123.58668171545287 42.08611553150695,123.6769400202902 41.98261832684511,123.78976274359593 41.872652546851896,123.78976274359593 41.82737251985236,123.81984877355717 41.743281041039154,123.8499347910547 41.698001014010515,123.88002079607395 41.6462524116796,123.88754229537881 41.42632085175137,123.93267127488798 41.24520074360771,123.97027873637853 41.212857867154526,123.99284320392326 41.16757784012589,124.0229291497526 41.141703538945876,124.06805804514443 41.10936066249269,124.1056654365384 41.06408063543495,124.13575133563427 40.85708622611128,124.15831575177435 40.818274774355814,124.17335869197996 40.79240047320491,124.19592309642758 40.76005759675172,124.18840162906417 40.727714720298536,124.16583722225914 40.58540606388124,124.15079428049648 40.501314585097134,124.18840162906417 40.46897170864395,124.23353042163944 40.42369168161531,124.26361626775906 40.32666305222665,124.28618064418697 40.15848009462934,124.39148097479483 40.10673149229842,124.42156675551087 39.95795426060795,124.51182402284758 39.841519905341556,124.5419097536942 39.750959851255175,124.5419097536942 39.69274267365108,124.55695261447545 39.640994071320165,124.58703832662286 39.47927968905424,124.61712402633566 39.30462815618375,124.65473113343614 39.25934812912601,124.69233822107344 39.16878807506873,124.70738105069177 39.12997662331327,124.71490246431495 39.07822802098235,124.73746670053515 39.04588514450006,124.77507374534616 38.994136542169144,124.80515936715528 38.88417076220503,124.82020217339596 38.78714213287458,124.85028777652042 38.741862105816836,124.85028777652042 38.560741997673176,124.89541615783673 38.52839912121999,124.91045894540002 38.4960562447377,124.92550172983465 38.437839067104505,124.93302312087326 38.37962188950041,124.9555872893252 38.28259326014086,124.9555872893252 38.24378180838539,124.96310867727152 38.21790750720538,124.97815145079949 38.20497035662993,125.00823698850581 38.17909605544992,125.03080113359465 38.11441030254355,125.06088664950221 38.00444452257943,125.1210576438898 37.823324414435774,125.12857901470124 37.57104997805436,125.1436217539449 37.3899298699107,125.16618585700053 37.33818126755068,125.18122858847346 37.31230696642888,125.21131404206244 37.2476212134934,125.24139948317315 37.15059258410474,125.33165573180304 37.014752503018826,125.40686918663414 36.891849572450155,125.54225320908881 36.691323738428764,125.59490248301154 36.56195223258692,125.63250908388 36.46492360322736,125.61746644588129 36.4261121514719,125.6400304017152 36.36142639856553,125.70020091635524 36.30967779623461,125.75285007580533 36.23852346802596,125.79045659489202 36.01859190812684,125.86566957466857 35.818066074105445,125.95592504758679 35.721037444716785,125.9784888982831 35.68222599296132,126.00105274197995 35.649883116508136,126.01609530057613 35.45582585775992,126.03865913256595 35.39760868015583,126.06122295758541 35.371734378975816,126.07626550370333 35.28117432491854,126.11387185534113 35.22942572255852,126.11387185534113 35.13886566850124,126.13643565698294 35.074179915565765,126.15899945161073 34.860716930939816,126.23421204977785 34.724876849824795,126.27181831967027 34.68606539806933,126.31694581780903 34.64078537104069,126.33198831096524 34.524351015803404,126.33198831096524 34.40144808526384,126.39967949160928 34.37557378408383,126.4523281440488 34.336762332357466,126.55010411164403 34.19445367591106,126.6403587341265 34.13623649830697,126.6403587341265 34.08448789597605,126.6629223722266 34.00039641716285,126.64787994760263 33.75459055611282,126.61027387242211 33.735184830235085,126.61779508902691 33.70931052908418,126.6328375198791 33.62521905027097,126.67044358337444 33.599344749120064,126.69300721212494 33.515253270365065,126.74565565196826 33.45703609273187,126.76069805635052 33.34707031273865,126.7682192573775 33.32766458689002,126.8058252507908 33.23063595750136,126.8058252507908 33.1918245057459,126.8359100315065 32.95895579527132,126.89607955556858 32.86192716588266,126.89607955556858 32.73255566006992,126.91864311422978 32.680807057739,126.94872784820473 32.629058455408085,126.96377021053195 32.53202982604853,126.97129139053868 32.48674979896168,126.95624902976124 32.42853262135759,126.96377021053195 32.422064046084415,127.0088972788144 32.350909717875766,127.05402431906259 32.20860106145847,127.09915133126924 32.15685245912755,127.11419366243354 32.03394952858798,127.2495745028209 32.0016066521348,127.28718024703267 31.91751517332159,127.33982825624116 31.826955119264312,127.3999973628961 31.788143667508848,127.460166419718 31.78167509220657,127.4977720549141 31.762269366328837,127.52785654905892 31.73639506517793,127.55041991148755 31.67170931227156,127.63315218043863 31.574680682912003,127.67075772608223 31.542337806429714,127.6857999388958 31.445309177070158,127.70836325226992 31.238314767746488,127.76101095621561 31.167160439537838,127.79109534133022 31.13481756305555,127.81365862199891 31.063663234876003,127.83622189565358 31.01838320781826,127.87382733619597 30.960166030214168,127.90391167458438 30.88254312670324,127.93399600052362 30.779045922041405,127.94903815881116 30.617331539775478,127.88886950693995 30.47502288335818,127.84374298530747 30.242154172854498,127.87382733619597 30.17099984464585,127.88134842194995 29.970474010624457,127.94151708006393 29.769948176573962,128.00168568834488 29.562953767250292,128.13706487476156 29.51767374019255,128.16714910415612 29.47886228846619,128.17467015954753 29.401239384984365,128.22731752556138 29.24599357796251,128.3626962914932 29.148964948602952,128.430385579828 29.110153496847488,128.4379066079855 28.941970539279282,128.49055378320918 28.838473334588343,128.49055378320918 28.696164678200148,128.52063786621147 28.670290377020137,128.54320092027046 28.64441607586923,128.55824295242928 28.612073199416045,128.5732849814667 28.566793172387406,128.61089004043606 28.3403930371569,128.72370510056498 28.282175859523704,128.74626809155598 28.101055751380045,128.7989150433059 27.86171846560319,128.76883107556205 27.706472658610437,128.62593205858138 27.60944402925088,128.5732849814667 27.551226851617685,128.55824295242928 27.49300967398449,128.54320092027046 27.3765753187472,128.49807480511663 27.21486093645217,128.56576396734454 26.981992225977592,128.6184110499089 26.84615214486257,128.64849507994222 26.79440354250255,128.64849507994222 26.716780638991622,128.51311684661778 26.690906337840715,128.45294866194308 26.66503203668981,128.4228645509138 26.61975200966117,128.3626962914932 26.535660530847963,128.15962804796436 26.529191955574788,128.1220227554004 26.50978622972616,128.06937531309813 26.503317654394777,128.01672783263348 26.483911928517045,127.97912246609485 26.470974777941592,127.86630624964164 26.451569052092964,127.81365862199891 26.38041472385521,127.78357424621936 26.179888889804715,127.88134842194995 25.985831631085603,127.97912246609485 25.92114587817923,128.00920676088572 25.701214318251004,128.09193850732117 25.64299714061781,128.10698063291784 25.55243708656053,128.16714910415612 25.50068848420051,128.19723332106514 25.300162650179118,128.2574017175648 25.2484140478482,128.2724438088917 25.11904254203546,128.32509110402316 25.0220139126468,128.407822490728 25.190196870244108,128.37021732662834 25.241945472545922,128.34013318134384 25.287225499603665,128.4228645509138 25.27428834902821,128.46799071278656 25.235476897272747,128.49807480511663 25.235476897272747,128.49807480511663" stroke="#4dd2ff" stroke-linecap="round" stroke-linejoin="round" stroke-width="0.5"><title>2019-10-27 5.9km</title><desc>9223370464700123768</desc></polyline><polyline fill="none" points="107.05320540780667,149.05671755492222 106.91190580034163,149.11144367608358 106.74705625814386,149.05671755492222 106.41735717398115,149.11144367608358 105.80505887488835,148.7283605906996 105.4047099868767,148.3452769514697 105.23986044491176,148.3452769514697 104.81596162240021,147.90746639994904 104.34496293065604,147.68856085286825 103.73266463144682,147.19602271079202 103.47361535113305,147.00447985279607 103.23811600520276,146.9223900141369 103.00261665938888,147.41492866471526 102.83776711730752,147.5517447941529 102.13126907986589,147.60647122614319 101.98996947228443,147.49701835087035 101.8957697339356,147.16865945389145 101.330571303959,146.73084695832222 101.21282163111027,146.56666708592093 100.93022241606377,145.7731296021957 100.71827300474979,145.44476856890833 100.57697339728475,145.00695322503452 100.43567378970329,144.84277228452265 100.22372437862214,144.815408784576 99.65852594852913,144.5965006830811 99.65852594852913,144.48704656449263 98.9755778455874,144.13132036686875 98.81072830350604,144.04922963812714 98.71652856527362,143.88504810427548 98.74007849977352,143.6935028527223 98.12778020068072,143.25568461517105 98.01003052771557,143.2009572845709 97.65678150905296,143.41986653898493 97.16223288269248,143.44723018308287 96.59703445271589,143.80295729913632 96.38508504140191,143.72086646861862 95.70213693857659,143.11886626755586 95.13693850848358,142.57159217065782 94.66593981685583,142.2158634015359 94.38334060180932,141.88749795997865 94.3126907980768,141.72331508659408 94.05364151764661,141.42231288782205 93.88879197568167,141.36758517855196 93.81814217183273,141.17603810722358 93.46489315305371,140.92976309772348 92.94679459230974,140.27302862002398 92.80549498472828,140.10884474622435 92.73484518099576,139.88993275619578 92.47579590056557,139.50683633855078 92.05189707805403,138.82273421506397 91.76929786312394,138.46700041275471 91.6750981247751,138.1112661328807 91.34539904061239,137.56398169268505 91.22764936764725,137.31770332579617 91.15699956391472,137.23561048592092 90.99215002183337,136.90723887225613 90.92150021810085,136.6883242369804 90.4740514610894,136.0589436532464 90.23855211515911,135.53901943462552 89.81465329264756,134.77281346317613 89.43785433925223,134.30761589945178 89.3672045355197,134.11606372406823 89.08460532058962,133.76032360226964 88.91975577850826,133.37721832160605 88.4487570868805,132.7478298721544 87.97775839513633,132.06371029643924 87.64805931097362,131.37958895417978 87.41255996504333,131.05121008236893 87.0122110771481,130.36708612553775 86.91801133891568,130.2028961131 86.56476232013665,130.17553110109293 86.4470126471715,130.2576261285576 86.3999127780553,130.44918109368882 86.21151330147404,130.5860059839615 85.8582642825786,131.1880346617836 85.62276493676472,131.40695384173887 85.57566506764852,131.54377823742107 85.48146532929968,131.65323770305258 85.45791539468337,131.81742681664764 85.38726559095085,131.98161582858302 85.15176624513697,132.4741822537908 85.05756650678813,132.58364133504801 84.84561709547415,132.82992410249426 84.82206716097426,133.0214772077743 84.89271696470678,133.15830076968996 85.2459659834858,133.6508650071919 85.22241604886949,133.76032360226964 85.12821631052066,133.8424175188993 85.505015263916,134.5265325017972 85.57566506764852,134.8275425346219 85.92891408631112,135.04645870730747 86.07021369377617,135.3748326272762 86.04666375927627,135.56638389258296 86.11731356312521,135.7579350194428 86.3999127780553,136.19576564643648 86.77671173145063,136.6609598948853 86.91801133891568,137.0166961220384 87.2948102921946,137.48188892917824 87.5774095072411,137.97444512872607 88.09550806798507,138.5764570182073 88.35455734841526,138.95955478103133 88.4487570868805,139.20583162180264 88.96685564762447,139.8625687447784 89.13170518982224,139.9720247736259 89.50850414310116,140.60139606235316 89.79110335814767,140.8750352867064 90.00305276934523,140.98449089741916 90.30920191889163,141.312857458106 90.37985172262415,141.50440443053958 90.37985172262415,141.50440443053958 90.23855211515911,141.36758517855196 90.28565198439173,141.50440443053958 90.09725250757765,141.7780427223479 89.79110335814767,141.94222556176828 89.46140427398495,142.13377207922167 89.08460532058962,142.2432271699654 88.37810728303157,142.13377207922167 88.04840819886886,142.2158634015359 87.76580898382235,142.95468415715732 87.67160924558993,143.61141198832775 87.600959441741,143.74823008157546 87.600959441741,143.96713888383238 87.41255996504333,144.40495594590902 87.22416048846208,144.6785912422929 86.91801133891568,144.9248627674533 86.49411251640413,145.6089491363964 86.23506323597394,145.88258318949374 86.0937636285089,145.99203673168086 85.78761447884608,146.34776043117745 85.71696467511356,146.5393037640024 85.22241604886949,147.11393293150468 84.72786742250901,147.66119764681207 84.42171827307902,147.85274003009545 84.02136938518379,148.31791381313815 83.1971216746606,148.67363439043402 82.631923244684,148.8925391236262 81.87832533800974,149.08408061688533 81.4544265154982,149.33034804768977 81.38377671176568,149.52188922447385 80.67727867420763,149.95969710868667 80.44177932839375,150.15123783054878 80.20627998269629,150.47959303163225 79.97078063664958,150.75322205520933 79.80593109468464,151.10893936327193 79.45268207590561,151.40993055867148 79.02878325339407,151.90246086826664 78.8403837766964,151.98454916418996 78.08678587002214,151.73828420010977 77.73353685135953,151.76564698520815 77.56868730927818,151.71092141221743 77.28608809423167,151.76564698520815 76.43829044920858,151.5741074302059 75.73179241165053,151.5741074302059 74.88399476674385,151.71092141221743 74.36589620588347,152.2855393650243 74.03619712172076,152.5044411146082 73.84779764502309,152.55916652371525 73.75359790667426,152.69597999713733 73.63584823370911,152.75070536669227 73.18839947669767,153.1885079164349 73.04709986923262,153.1885079164349 73.0,153.38004630448995 73.21194941131398,153.73576008647797 73.30614914966282,154.09147339095944 73.30614914966282,154.228286073223 73.5887483645929,154.36509868485155 73.94199738337193,154.85762350188452 74.46009594411589,155.07652312683058 74.64849542092998,155.18597287143348 75.14304404705763,155.78794565892895 75.40209332748782,156.06156920117792 75.44919319672044,156.22574319088017 75.3314435237553,156.38991707895184 75.84954208461568,157.0739738510165 76.46184038382489,157.62121799733723 76.93283907545265,158.22318525309674 77.21543829038274,158.46944419087959 77.3802878325805,158.8251511415001 77.3802878325805,159.01668545551365 77.49803750542924,159.1261335729796 77.61578717839438,159.1261335729796 77.99258613178972,159.29030566423899 78.29873528133612,159.618649541575 78.46358482341748,159.64601151301758 78.67553423461504,159.89226912867161 79.05233318801038,160.46686934199533 79.33493240305688,160.685764333728 79.82948102918454,161.42453359576757 80.13563017884735,161.6707895588479 80.39467945927754,161.94440702712745 80.55952900124248,161.99913048691815 81.10117749671917,162.2727476163127 81.36022677714936,162.57372613236657 82.01962494547479,162.92942757418496 82.631923244684,163.39457489328925 83.26777147839312,163.80499832044006 83.97426951595116,164.29750559400418 84.37461840396281,164.65320472230087 85.01046663755551,165.06362620036816 85.41081552545074,165.36460154689848 85.59921500214841,165.41932430045563 85.69341474049725,165.50140840967651 85.76406454434618,165.69293789885705 85.92891408631112,165.82974459207617 86.49411251640413,166.02127384400228 86.77671173145063,166.21280295748147 86.89446140429936,166.34960938242148 87.22416048846208,166.45905447145924 87.53030963800848,166.7053057566227 87.69515918008983,166.7600282334024 88.07195813348517,167.0610016535502 88.26035761018284,167.14308525423985 88.4487570868805,167.08836285656434 88.66070649796166,167.11572405687184 88.7549062364269,167.22516882958007 88.68425643257797,167.41669707305846 88.7549062364269,167.63558632478816 88.87265590939205,167.74503088279744 89.60270388133358,168.10072538425447 89.79110335814767,168.128086480021 90.28565198439173,168.37433621456148 90.78020061051939,168.75739090229035 91.1098996946821,168.89419601371628 91.43959877884481,168.92155702755554 91.74574792850763,169.16780602472136 91.88704753608909,169.41405479318928 92.52289576968178,169.76974705484463 92.8525948538445,169.82446889890707 92.99389446142595,169.76974705484463 93.32359354558866,169.82446889890707 94.0065416485304,169.63294239534298 94.12429132149555,169.550859565672 94.50109027477447,169.38669383025263 94.68948975147214,169.41405479318928 94.8543392935535,169.44141575336107 95.06628870475106,169.49613766523544 95.2075883122161,169.4687767107389 95.53728739637882,169.550859565672 95.7492368076928,169.5234986168798 96.19668556482065,169.14044503634796 96.3144352377858,168.97627904664841 96.9267335368786,168.4837804674753 97.09158307895996,168.37433621456148 97.60968163982034,168.21016975029488 98.33972961187828,167.6903086094826 99.09332751855254,167.19780764062307 99.63497601391282,167.00627923896536 100.03532490180805,166.6505832685798 100.45922372443601,166.48641573663917 100.67117313563358,166.45905447145924 101.35412123857532,165.99391253080103 101.70737025735434,165.8023832591134 102.36676842567977,165.36460154689848 102.53161796776112,165.28251739538973 103.14391626697034,164.79001195228193 103.45006541640032,164.5984818105935 103.82686436991207,164.37959005055018 103.99171391187701,164.35222856787732 104.32141299615614,164.13333660445642 104.43916266912129,163.99652903556125 105.16921064117923,163.6681905820442 105.87570867850445,163.23040534448228 106.53510684694629,162.84734266847954 106.69995638902765,162.73789608792868 106.74705625814386,162.6010877987428 106.95900566945784,162.49164111638675 107.1709550806554,162.40955607508658 107.35935455735307,162.30010931371362 107.50065416481812,162.13593908699113 108.25425207160879,161.78023658005986 108.84300043608528,161.53398071872653 109.17269952024799,161.23300102187204 109.36109899694566,160.9593828190409 109.76144788484089,160.76784990899614 110.20889664208516,160.4121455658751 110.67989533371292,160.16588843328645 111.15089402534068,159.78282132773893 111.15089402534068,159.618649541575 111.62189271708485,159.3450296719966 112.1164413432125,158.79778908536537 112.30484081991017,158.6609787620837 112.44614042749163,158.49680628092028 112.51679023110773,158.05901250077295 112.61098996945657,157.84011533949524 112.7051897078054,157.7853910208214 112.91713911900297,157.8127531815844 113.08198866120074,157.92220179614378 113.48233754909597,157.92220179614378 113.31748800701462,157.8127531815844 113.22328826866578,157.64858017500956 113.38813781063072,157.2928716451861 113.34103794163093,157.12869831651915 113.45878761447966,156.77298908884404 113.57653728744481,156.60881543817231 113.78848669864237,156.55409086530562 114.02398604457267,156.60881543817231 114.21238552115392,156.71826454991242 114.4243349324679,156.77298908884404 114.68338421278168,156.4446416857245 114.77758395124692,156.25310551267467 114.91888355871197,156.1162938757043 115.10728303540964,155.76058328908402 115.50763192330487,155.26806015029433 115.57828172703739,155.07652312683058 115.71958133461885,154.93971088243416 115.79023113823496,154.58399871661095 116.04928041878156,154.2830111263902 116.09638028789777,154.09147339095944 116.40252943744417,153.54422195552615 116.54382904490922,153.434771532804 116.70867858710699,153.48949674982578 116.96772786742076,153.21587055173586 117.0619276057696,152.99696938993293 117.25032708246727,152.8327933998662 117.48582642828114,152.39499026242993 117.933275185409,152.7780680472788 118.68687309208326,153.24323318427196 119.32272132579237,153.73576008647797 119.25207152205985,153.95466063800268 119.1578717835946,154.03674829826923 119.13432184921112,154.14619847227004 119.27562145667616,154.00938574766042 119.32272132579237,153.79048524133395 119.84081988665275,153.0243320449954 119.9585695596179,152.8601560718671 120.17051897081546,152.23081389951403 120.31181857828051,152.03927468069014 120.40601831662934,151.84773532350664 120.5473179242108,151.71092141221743 120.5708678587107,151.49201900724438 120.99476668122225,150.75322205520933 121.48931530758273,150.0144230433798 121.58351504581515,149.79551923685358 122.0545137374429,149.16616978595266 122.52551242907066,148.48209260049043 123.04361099004745,147.93482958056848 123.32621020497754,147.25074921626947 123.67945922375657,146.73084695832222 123.84430876583792,146.32039708667435 124.0562581771519,146.238307036052 124.57435673801228,146.238307036052 124.6685564762447,146.01940011008992 124.88050588744227,145.74576619823347 125.09245529875625,145.7184027916519 125.42215438291896,146.01940011008992 125.77540340169799,146.18358032152173 125.96380287839565,146.32039708667435 126.1051024858607,146.3751237729739 126.26995202794205,146.5119404391735 126.78805058880243,146.62139372134698 127.0,146.62139372134698 126.9764500655001,146.81293685629498 126.76450065418612,146.8403001499828 126.52900130837224,146.7855735598423 126.19930222420953,147.3602021932602 126.17575228959322,147.49701835087035 126.29350196255837,147.5517447941529 126.48190143913962,147.6338344378455 126.57610117748845,147.7432872565987 126.62320104660466,148.01691910566296 126.74095071956981,148.15373492409708 126.74095071956981,148.31791381313815 126.64675098133739,148.40000321957632 126.57610117748845,148.5641819559969 126.52900130837224,148.7283605906996 126.59965111222118,148.86517604190158 126.64675098133739,148.97462835209444 126.64675098133739,148.97462835209444 125.96380287839565,148.70099749192013 125.72830353246536,148.61890817890526 126.01090274751186,148.86517604190158 126.4112516354071,149.6313412633608 126.4112516354071,149.60397825785913" stroke="#4dd2ff" stroke-linecap="round" stroke-linejoin="round" stroke-width="0.5"><title>2019-10-26 6.3km</title><desc>9223370464766377084</desc></polyline><polyline fill="none" points="143.91233283793554,163.62122901907424 144.31352154538035,164.55416170071112 145.9985141158104,166.5133171878988 148.32540861796588,164.74074812117033 147.36255572084337,162.7815887797624 147.603268945124,161.7553607581649 151.454680535011,160.82242517895065 155.38632986601442,159.0498449173174 159.63893016334623,157.46384909545304 160.4413075777702,158.5833758477238 161.24368499265984,161.19559952645795 162.84843982150778,165.95355891209329 164.3729569092393,171.45783352432773 165.65676077269018,173.2303893780918 168.6255572065711,172.57734289002838 173.6002971767448,171.08466342656175 179.45765230292454,168.65905402443605 182.58692421996966,167.63283269666135 186.03714710241184,166.04685198207153 186.67904903460294,164.8340413168189 185.07429420528933,159.88948863366386 183.87072808342054,157.37055513670202 182.7473997026682,154.01196618709946 181.06240713223815,149.53382811392657 180.17979197623208,146.6416854467243 178.89598811324686,142.44339731388027 176.6493313522078,138.80486510880291 173.43982169404626,139.73782348557143 171.59435364045203,138.80486510880291 170.55126300128177,136.37916880939156 170.31054977700114,134.2333551007323 167.82317979168147,132.36742598254932 164.9346210998483,133.5802803489496 163.65081723639742,133.20709456392797 163.0089153042063,131.4344599742326 161.88558692391962,130.68808647227706 160.4413075777702,130.31489948928356 158.75631500734016,128.54225920967292 156.91084695374593,128.9154469265486 154.66419019317254,130.50149300007615 155.46656760759652,133.3936874755309 158.59583952464163,135.53950318408897 161.24368499265984,137.3121296975878 162.60772659722716,139.73782348557143 163.08915304625407,141.1372592386906 163.81129271909595,143.56294272874948 165.25557206524536,147.2947507313802 161.24368499265984,148.78746960440185 158.03417533403262,150.00030186830554 158.355126300361,151.86619447084377 159.3982169390656,155.50467393244617 160.0401188703254,156.53090907318983 160.28083209507167,158.95655112259556 161.7251114412211,163.43464236700675 163.57057949481532,168.565761225007 165.57652303110808,172.76392764912453 166.37890044553205,173.13709705148358 171.67459138203412,171.17795596533688 177.05052005965263,169.12551787815755 181.14264487382025,167.63283269666135 184.19167904928327,166.3267311344971 186.51857355143875,165.67367964348523 186.83952451730147,164.27428199758288 186.27786032715812,163.24805567623116 183.87072808342054,158.67666968074627 183.148588410113,156.1577327933628 181.22288261493668,151.49301625945373 179.45765230292454,146.6416854467243 178.17384843993932,143.8428288650466 178.09361069835722,142.35010179999517 175.2050520060584,139.64452769124182 172.15601783059537,139.4579360737116 170.63150074286386,136.09928035462508 168.22436849912629,132.46072253014427 163.81129271909595,133.5802803489496 162.60772659722716,132.2741294252919 161.644873699639,131.34116332035046 160.0401188703254,129.288634489174 156.91084695374593,127.51599219045602 154.90490341745317,127.04950679506874 153.46062407130376,127.42269513057545 151.3744427934289,128.3556652928819 151.1337295686826,129.94171235180693 154.2630014861934,131.52775661839405 156.9910846957937,134.51324413507245 158.83655274892226,135.53950318408897 161.32392273424193,137.12553759716684 162.206537890248,138.43168148770928 163.65081723639742,141.5104417388793 165.17533432412893,145.89532454143045 165.01485884096473,147.10816069802968 162.36701337294653,148.4142901179148 161.16344725107774,148.50758500408847 158.59583952464163,150.28018600511132 158.355126300361,151.21313249948435 160.0401188703254,155.59796808450483 160.20059435348958,157.1839671904454 160.84249628521502,161.00901237223297 162.60772659722716,164.64745491585927 163.73105497751385,167.35295394994318 164.85438335780054,170.61820058716694 165.89747399743646,172.950512369629 167.34175334312022,172.85722001409158 169.34769687987864,171.8310034671449 173.68053491832688,170.9913708778913 178.41456166421995,168.84563959517982 184.03120356611907,166.88648917875253 186.67904903460294,165.58038653462427 186.83952451730147,164.55416170071112 185.71619613654912,162.8748821784393 184.19167904928327,158.2102004183107 182.34621099568903,152.4259614982875 180.34026745939627,147.66793068137486 179.3774145618081,143.8428288650466 177.77265973296016,139.73782348557143 175.2050520060584,139.27134441805538 171.9153046058491,139.36464025062742 170.39078751858324,135.25961446831934 169.26745913829654,133.3936874755309 168.22436849912629,132.46072253014427 164.9346210998483,133.0205016133841 163.57057949481532,133.5802803489496 161.96582466596738,131.52775661839405 159.79940564651042,130.03500915080076 158.43536404147744,128.635556153371 156.6701337294653,127.32939806138165 153.62109955400229,127.04950679506874 150.81277860328555,128.635556153371 150.49182763742283,129.94171235180693 152.8187221395783,131.99423969513737 157.63298662705347,134.8864293791121 161.56463595852256,137.87190576654393 162.60772659722716,139.92441504466115 163.49034175323322,144.21601024491247 164.13224368495867,147.3880457332125 162.52748885611072,148.97405928978696 158.43536404147744,150.28018600511132 158.03417533403262,151.67960538470652 159.4784546806477,155.31808559974888 159.87964338762686,158.2102004183107 161.48439821694046,161.94194775813958 162.52748885611072,165.39380028826417 163.81129271909595,169.31210335204378 165.65676077269018,173.13709705148358 169.02674591401592,172.11088082334027 173.03863298660144,170.0584448610898 176.16790490364656,169.12551787815755 181.7043090639636,167.5395397907705 185.79643387859687,165.67367964348523 186.11738484399393,163.52793569781352 185.31500742956996,162.03524124377873 183.54977711755782,156.62420311878668 183.0683506685309,155.03820302768145 182.26597325410694,153.63878886424936 181.30312035651878,152.14607802795945 180.5809806836769,149.62712288403418 180.26002971781418,147.66793068137486 179.61812778608873,146.7349805162521 179.21693907864392,144.86907728773076 178.41456166421995,141.8836240848177 177.6924219909124,140.20430231117643 176.6493313522078,139.64452769124182 174.0014858841896,140.297598047473 171.59435364045203,140.0177108097705 169.90936106955633,135.81939181283815 168.8662704313174,132.7406121151289 165.09509658254683,133.48698391701328 163.41010401165113,134.14005873649148 162.28677563136443,131.71434987825342 159.9598811296746,131.24786665686406 157.9539375929162,128.26236832008 155.6270430907607,127.04950679506874 151.93610698357224,128.16907133779023 150.65230312058702,128.72885308752302 152.09658246627077,130.87467990553705 155.78751857345924,133.7668731835438 158.75631500734016,135.81939181283815 162.0460624070838,138.3383855583961 162.76820208039135,140.85737226170022 164.13224368495867,144.58919147000415 164.53343239240348,145.4288486620062 165.33580980682746,146.92157062637853 162.60772659722716,148.4142901179148 159.63893016334623,149.81371239566943 158.11441307608038,150.56007005483843 158.19465081719682,152.98572817788227 159.3179791974835,154.66502613009652 160.0401188703254,156.81079118105117 161.00297176791355,160.26266336767003 159.5586924222298,162.7815887797624 155.78751857345924,164.3675752413692 154.50371471000835,164.55416170071112 152.33729569101706,165.67367964348523 152.33729569101706,167.81941847980488 151.1337295686826,169.77856686746236 146.15898959850892,170.4316153837135 142.62852897448465,169.68527418375015 141.74591381894425,168.75234681449365 141.0237741456367,165.67367964348523 138.4561664192006,164.9273345026886 137.25260029686615,164.27428199758288 136.12927191657946,163.994402207667 135.5676077264361,162.68829537159763 133.16047548269853,164.18098874390125" stroke="#4dd2ff" stroke-linecap="round" stroke-linejoin="round" stroke-width="0.5"><title>2019-10-25 7.5km</title><desc>9223370464852588217</desc></polyline><polyline fill="none" points="36.93976606463548,265.5726016315748 37.117686642333865,265.6967236336641 37.331191335455514,265.7587846057868 37.59807220188668,265.8001585765014 37.971705414995085,266.6690099820844 38.0250815883046,267.0 38.27417039696593,266.91725254691846 38.541051263397094,266.7310706522112 38.93247653421713,266.44145402676077 38.558843321108725,265.9035934657586 38.18521010817494,265.220922207096 37.72261660627555,264.7864938281127 37.331191335455514,264.6003099479858 36.921974006982055,263.71076234820066 36.58392490935512,263.5038902457454 35.99678700324148,262.8625853669946 35.729906136752106,262.5936504504498 35.0715999994427,262.0971542687912 34.733550901990384,261.8902804955869 34.48446209327085,261.72478132287506 34.16420505353017,261.0420957861643 34.039660649199504,260.4421580858034 34.00407653365983,260.2352825990383 33.861740071559325,260.02840689801087 33.80836389824981,259.8835937798576 33.79057184042176,259.71809294489503 33.71940360945882,259.8008433794748 33.95070036035031,259.46984143533336 33.861740071559325,259.01471286671585 33.612651262898,258.9112744110753 33.25681010761764,258.6837096200761 32.812008663546294,258.3940813294612 32.82980072119972,257.81482348861755 32.954345125646796,257.6286331116862 33.007721298898105,257.13212459144415 33.27460216532927,256.6769906972622 33.66602743614931,256.1184158645774 33.98628447588999,255.58052751260402 34.217581226839684,255.06332580849994 34.395501804421656,254.7116278848116 34.555630324292,254.52543461577443 34.697966786450706,253.8013480308582 34.697966786450706,253.6358421572222 34.60900649760151,253.44964788552898 34.30654151563067,253.2634534403478 34.11082888022065,253.24276515787642 33.80836389824981,252.9738172916259 33.470314800797496,252.7876224028878 32.93655306781875,252.497985564376 32.3494151616469,252.18765991429973 32.20707869948819,251.67044942610664 32.58071191253839,250.63602443257696 32.72304837463889,250.20156433800003 33.11447364551714,249.27057523926487 33.505898916278966,248.75335719849681 34.039660649199504,248.1533825933584 34.395501804421656,247.57409505796386 34.359917688940186,247.22238394900342 34.48446209327085,246.9741169109766 34.697966786450706,246.7465385217365 34.85809530626284,246.4568929240486 35.17835234606173,245.73277709256217 35.427441154723056,245.56726453386364 35.19614440383157,245.1121042904706 34.60900649760151,244.78107800747966 34.16420505353017,244.18109147128416 33.4347306851414,243.82937438804947 33.007721298898105,243.35352087792126 32.58071191253839,243.00180233747233 32.24266281508608,242.6914619345771 31.264099638035987,241.98802190275455 31.19293140695663,241.76043783269415 30.445664980856236,241.4294059950771 30.16099205671344,241.26388987057726 29.787358843605034,241.16044222305936 29.022300359851215,240.85009895918483 28.89775595552055,240.5397552130744 28.61308303126134,240.5397552130744 27.88360866298899,240.35354873402684 27.492183392110746,240.001824910898 26.780501081608236,239.4432034483034 26.282323464169167,239.1121677702904 25.979858482198324,238.96733948864858 25.890898193407338,238.78113154353923 26.38907581072999,238.13974729295296 26.638164619507734,237.6845701236889 26.54920433065854,237.35353153091273 25.944274366716854,237.0224923893693 25.214799998386297,236.5673126738693 24.4675335722859,236.07075180119136 23.542346568661742,235.69833033646864 22.90183248912217,235.20176730323874 22.510407218360342,234.9948656749766 21.92326931207208,234.6224422040832 22.172358120791614,234.27070828831347 22.79508014250314,233.0706702666066 23.13312924001366,232.30512500283658 23.488970395294018,231.78786302817753 23.57793068414321,231.51888627190783 23.77364331955323,230.9809316726314 24.3251971101854,230.64988196820195 24.609870034386404,230.02916229327093 25.054671478574164,229.80156459573482 25.446096749335993,229.36705918012012 25.53505703812698,228.82909878440842 25.570641153666656,228.60149971921055 25.588433211436495,228.3739003945957 26.068818771047518,227.69110086439468 26.460244041867554,227.09106298637926 26.424659926327877,226.13927506798063 26.566996388486587,225.76683508245333 26.833877254859544,225.47715905787481 27.136342236830387,224.77365839172853 27.52776750770863,224.2149943324912 28.025945125031285,223.51148921983258 28.559706857951824,222.78729019145248 28.986716244311538,222.08378004885162 29.28918122628238,221.83548175972828 29.52047797717387,221.338884255194 29.894111190224066,221.00781856608228 30.089823825575877,220.13876852057 30.499041154165752,219.39386547113827 30.730337905115448,218.77311080723302 31.6911090243957,218.02820266311755 31.655524908856023,217.55228767174412 31.833445486496203,217.09706357498362 31.993574006366543,216.70391465628927 32.59850397036644,215.8141537186748 32.82980072119972,215.42100227385527 33.3813545119483,214.5519279121072 33.87953212938737,213.807004019749 34.48446209327085,213.0 34.68017472868087,213.1034622361185 35.55198555911193,213.517310644369 36.03237111872295,213.8690811169654 36.423796389542986,213.99323525337968 36.70846931374399,214.57262020283088 36.93976606463548,214.46915872796671 36.975350180175155,214.2001586425904 37.29560721991584,213.88977347838227 37.52690397092374,213.88977347838227 38.0250815883046,213.88977347838227 38.683387725555804,213.72423452684598 39.697535018087365,213.88977347838227 40.711682310618926,213.97254290265846 41.15648375463206,214.03461994839017 41.88595812302083,214.07600463481504 42.47309602913447,214.13808164834336 43.11361010867404,214.1173893126106 43.825292419234756,214.15877398193697 44.73268736520549,214.15877398193697 45.83579494652804,214.09669697479694 46.54747725708876,214.01392760199087 47.02786281664157,214.2001586425904 47.75733718503034,214.36569719956606 48.1131783403107,214.1173893126106 48.75369241973385,213.91046583764546 49.10953357501421,214.05531229265034 49.62550325016491,214.05531229265034 49.98134440544527,214.15877398193697 51.15562021790538,214.03461994839017 51.7783422395587,214.09669697479694 52.04522310604807,214.44846642659104 52.36548014578875,214.57262020283088 52.454440434637945,214.84161978634074 52.54340072348714,215.15200347085192 52.75690541660879,215.3796178662742 52.97041010973044,215.6693085396255 53.05937039857963,216.00038308023068 53.130538629658986,216.33145707189396 53.27287509170128,216.43491758173332 53.78884476691019,217.09706357498362 53.93118122901069,217.42813574828324 54.358190615370404,217.63505557777535 54.518319135240745,217.96612685904256 54.57169530849205,218.23512187077722 54.58948736626189,218.5868840317271 54.58948736626189,219.124872020373 54.358190615370404,219.68355032058025 54.393774730851874,220.32499384877156 54.32260649983073,221.31819266574166 54.32260649983073,222.02170550552546 54.2158541532699,222.68383297293622 54.48273501964286,222.80798162869178 54.71403177065076,222.91143878280127 55.034288810391445,222.91143878280127 55.443506138864905,222.97351304953918 56.20856462279335,223.49079785546928 56.63557400909485,223.82185942794604 57.098167510994244,224.19430304106208 57.329464261827525,224.35983331274474 57.48959278175607,225.06333543677465 57.969978341367096,225.33232088804652 57.93439422582742,225.49785021638672 57.66751335939625,225.47715905787481 57.18712779978523,226.09789288166212 57.06258339545457,226.67724270965846 56.955831048835535,227.09106298637926 56.52882166253403,227.71179179358296 56.01285198732512,228.4566638153774 55.585842601023614,228.93255281921302 55.12324909924064,229.78087388307904 54.80299205944175,230.21537839833763 54.37598267319845,230.8981692979578 53.89559711347101,231.45681466134556 53.37962743832031,232.07752989899018 52.88144982093945,232.76031443223474 52.454440434637945,233.44309663117747 52.34768808807712,233.71207079594024 52.09859927929938,234.167257018722 51.54704548866721,234.93279514473397 51.120036102307495,235.57418969388527 50.33718556072563,236.48455261417257 49.91017617448233,237.22939191714977 49.32303826819407,238.01560816790152 49.145117690612096,238.2431965049327 48.557979784323834,239.2569959469547 48.166554513562005,239.79492825509806 47.86408953159116,240.4156175796088 47.276951625419315,240.78803024858644 46.88552635454107,241.1397526871442 46.83215018128976,241.49147450643068 46.51189314154908,242.2776739805995 46.280596390599385,242.6087044122978 45.64008231117623,242.85697687618085 45.729042599967215,243.35352087792126 45.60449819563655,243.7879958669364 45.39099350239849,243.95350989991857 45.19528086704668,244.2017806921649 45.03515234723454,244.65694300990435 44.910607942787465,245.0707260351046 44.41243032546481,245.79484426662384 43.91425270808395,246.1465578891075 43.73633213038556,246.56033782858867 43.55841155280359,246.80860538092384 42.989065704343375,247.470650678355 42.86452130001271,247.71891709930787 42.59764043352334,248.2775154181436 42.38413574040169,248.54646960714308 42.312967509264126,248.7947346909641 42.135046931682155,249.18782044273394 41.939334296330344,249.39470736974909 41.298820216732565,250.22225293534575 41.12089963915059,250.7394671729562 40.46259350189939,251.5463187096757 40.409217328589875,251.815268497754 40.035584115597885,252.45660883888195 39.43065415159799,252.99450560192054 38.96806064975681,253.7806598041061 38.558843321108725,254.42199383571278 38.39871480129659,254.6702516177902 37.70482454850571,255.06332580849994 37.52690397092374,255.24951857617998 37.43794368207455,255.74603177516838 37.277815162262414,255.99428791188984 36.72626137151383,256.6149269040761 36.29925198521232,256.9459335782449 35.97899494541343,257.38037900577183 35.569777616881765,257.6906965899252 35.19614440383157,257.71138441168296 35.03601588396123,258.33201806970465 34.840303248609416,259.03540055139456 34.697966786450706,259.1388389427593 34.89367942180252,259.9456565576111 35.03601588396123,260.5662832750968 34.75134295976022,260.83522092060593 34.48446209327085,260.9593458656891 34.395501804421656,261.18690806462837 35.2139364615432,262.03509215930535 35.80107436783146,262.73846160437097 36.35262815846363,263.1522071800573 36.83301371813286,263.91763423643715 37.52690397092374,264.4761872648087 37.66924043302424,264.6416841585451 37.98949747270672,265.09679990951554 38.3097545124474,265.82084555861366 38.73676389880711,266.25527168868575 38.95026859192876,266.6483230877784 38.41650685906643,266.75175753796066 38.0250815883046,266.7931313030422 37.91832924168557,266.4207671088807 37.81157689506654,266.0690891772101 37.188854873296805,265.71741062651563 37.06431046902435,265.5312276138138 36.77963754476514,265.11748696444556 36.35262815846363,265.32435739626817" stroke="#4dd2ff" stroke-linecap="round" stroke-linejoin="round" stroke-width="0.5"><title>2019-10-22 9.0km</title><desc>9223370465104513524</desc></polyline><polyline fill="none" points="73.0,242.78929546415748 73.27630700776353,242.49571643905074 73.4925472746836,242.14621676466777 73.74482758616796,241.82467626262223 74.14126807561843,241.36333420050505 74.5136818686733,240.8600501472538 74.94616240262985,240.3148236323177 75.09032258059597,240.1191007548623 75.17441601771861,240.0352194345469 75.2104560622247,239.9653182943439 75.40266963286558,239.67173310891667 75.48676306998823,239.587851509772 75.5468298108899,239.48998957798176 75.64293659618124,239.43406844210404 75.67897664068732,239.32222610076133 76.07541713007959,238.83291476443992 76.45984427136136,238.30166044199723 76.86829810898053,237.7983649388043 77.10856507223798,237.50477502599824 77.21668520569801,237.46283355767082 77.27675194654148,237.3789505816385 77.36084538366413,237.32302856857132 77.73325917683542,236.77778772347665 77.81735261395806,236.67992374819005 77.85339265846414,236.63798202268663 78.22580645151902,236.14866092625016 78.49010011117207,235.78516410279553 78.52614015561994,235.7292414274125 78.69432702998165,235.40768559301796 79.1147942157113,234.8764177483681 79.48720800882438,234.42903267340444 79.90767519461224,233.8977609649446 80.1239154615323,233.5202771605982 80.22002224688185,233.4084299040842 80.36418242490618,233.1847351121687 80.44827586197061,233.11483041344036 80.80867630697321,232.62549650543951 80.95283648493933,232.48568649057415 81.27719688537763,232.06625557443476 81.38531701889588,231.996350294663 81.63759733032202,231.64682335087855 81.73370411561336,231.5629367492802 81.86585094546899,231.4930312080105 81.96195773076033,231.50701231918356 82.1902113458491,231.7027477229276 82.25027808669256,231.74469098668487 82.70678531692829,232.15014186227927 83.27141268074047,232.63947749894578 83.79999999993015,233.08686852378014 84.07630700769369,233.32454440067522 84.18442714121193,233.3804680754256 84.70100111229112,233.84183750518423 85.20556173520163,234.2892245324474 85.4218020021799,234.49893668940058 85.55394883197732,234.55485987606517 86.07052280305652,234.97428303523338 86.55105672962964,235.37972417978744 87.06763070070883,235.82710609406058 87.476084538328,236.2045834273158 87.59621801989852,236.2744865209679 87.9806451612385,236.66594317447743 88.54527252499247,237.12730133986042 89.06184649601346,237.51875551258854 89.57842046715086,238.02205206146755 89.6745272524422,238.10593463662372 89.74660734145436,238.20379757488263 90.20311457163189,238.5533074877021 90.7076751946006,238.9866985189583 91.06807563954499,239.2802851987508 91.63270300329896,239.69969363036216 91.8849833147251,239.9093973559793 92.37753058952512,240.34278402019117 92.66585094539914,240.67830822103133 92.96618464961648,240.97189121063275 93.02625139040174,241.09771229578473 93.41067853162531,241.58701539780304 93.7710789765697,241.99243662039225 94.26362625136971,242.42581657679693 94.50389321462717,242.6075561431644 94.75617352605332,242.74735564262664 94.9604004449211,242.90113492432283 95.17664071184117,242.99899437576823 95.36885428248206,243.1387934685772 95.4769744159421,243.19471306506603 95.57308120129164,243.27859241625993 96.20978865399957,243.58614958995895 96.64226918789791,243.83778675476788 96.69032258063089,243.97758497636823 96.82246941042831,244.04748403275153 97.41112347046146,244.4249383097631 97.91568409337196,244.74647259966878 98.49232480523642,245.10994521985413 99.03292547271121,245.4873965172883 99.51345939928433,245.82290789307444 99.63359288091306,245.87882637440634 99.64560622908175,245.90678560634842 99.7296996662044,245.97668366080325 99.87385984422872,246.15841843251837 100.33036707446445,246.4659690256667 100.53459399327403,246.66168267355533 101.02714126801584,247.02515012185904 101.57975528360112,247.4445344194828 102.15639599546557,247.84993799842778 102.66095661843428,248.21340223806328 103.02135706337867,248.47901010014175 103.1294771968387,248.5069687919895 103.20155728585087,248.40911334514385 103.41779755277093,248.325237191224 103.44182424916653,248.2972784616577 103.80222469405271,248.2972784616577 104.07853170181625,248.03167024093273 104.19866518344497,247.96177325359895 104.37886540591717,247.75208207394462 104.42691879859194,247.65422607828805 104.59510567289544,247.4864727773529 104.70322580641368,247.402596048516 104.89543937699636,247.17892451606167 105.38798665179638,246.71760080641252 105.88053392653819,246.21433677442838 106.07274749717908,246.04658167895104 106.40912124578608,245.59923373548372 106.52925472741481,245.3615795357473 106.79354838706786,245.09596552181756 106.98576195765054,244.95616846185294 107.2380422691349,244.71851312668878 107.32213570631575,244.66259416329558 107.44226918794448,244.6486144188384 107.46629588422365,244.55075616682007 107.70656284753932,244.31310011578898 107.77864293655148,244.29912033502478 107.88676307001151,244.17330224269244 108.16307007783325,243.80982709303498 108.64360400440637,243.32053207221907 108.77575083420379,243.166753269732 108.96796440478647,242.88715499687532 109.12413793097949,242.71939575434953 109.31635150162037,242.53765633897274 109.54460511676734,242.29999673321436 110.08520578412572,241.7967161826673 110.32547274749959,241.54507520163315 110.78197997767711,241.0138315853983 111.04627363733016,240.74820899093174 111.23848720797105,240.62238757900195 111.19043381529627,240.51054622516676 111.26251390425023,240.3987047783885 111.61090100102592,240.10512053844286 111.68298109003808,239.9932787547441 112.06740823131986,239.60183177991712 112.5119021134451,239.0566001674888 112.58398220239906,238.97271818488662 112.71612903219648,238.8888361500285 112.8602892102208,238.66515046810673 113.12458286981564,238.4135036314692 113.1846496106009,238.27369963008096 113.50901001109742,238.0080716272205 113.72525027801748,237.74244310005452 113.83337041147752,237.68652123802167 113.92947719682707,237.58865792359575 113.96551724127494,237.47681404856849 114.16974416008452,237.35098957800074 114.63826473854715,236.87565162756073 114.722358175728,236.77778772347665 114.7103448275011,236.66594317447743 114.5661846495932,236.4702149900404 114.51813125686022,236.37235079109087 114.61423804220976,236.38633139531885 114.62625139037846,236.48419558408204 114.57819799770368,236.58205970171548 114.61423804220976,236.56807911784563 114.67430478305323,236.6240014446521 114.77041156834457,236.7078848912497 115.03470522793941,236.7078848912497 115.15483870962635,236.76380715989217 115.20289210224291,236.86167107417714 115.68342602887424,237.29506755333568 115.93570634035859,237.50477502599824 116.12791991094127,237.63059935280762 116.41624026693171,237.96613031566085 116.64449388202047,238.06399335560855 116.9448275861796,238.32962124806363 117.04093437147094,238.37156244635116 117.1010011123144,238.35758204835292 117.18509454943705,238.4135036314692 117.37730812007794,238.5533074877021 117.6175750833936,238.707091561766 118.1101223580772,239.0845608167292 118.21824249159545,239.12650177972682 118.38642936589895,239.25232459018298 118.4825361512485,239.29426550089556 118.8189098998555,239.39212757500354 118.92703003331553,239.4480487282708 118.95105672965292,239.57387123812805 118.90300333697814,239.85347639444808 118.92703003331553,239.92337759275688 119.23937708558515,240.07716010122385 119.69588431582088,240.46860569350247 119.8280311456183,240.49656604940537 120.39265850943048,240.8880104218115 120.95728587312624,241.30741384306748 121.05339265841758,241.37731428619009 121.12547274742974,241.4611947700614 121.64204671850894,241.81069622337236 121.99043381528463,242.07631672089337 122.15862068958813,242.28601674332458 122.32680756389163,242.45377652606112 122.53103448270122,242.56561626501207 122.65116796438815,242.6075561431644 123.04760845378041,242.87317506800173 123.10767519456567,242.95705461953185 123.28787541703787,243.11083366165985 123.45606229134137,243.29257230306393 123.9125695216353,243.73992791325145 123.98464961064747,243.82380692461447 124.20088987756753,243.92166570514382 124.4411568408832,243.6560488496034 124.6093437152449,243.50227043045743 124.933704115625,243.26461252804438 125.06585094542243,243.25063263834454 125.24605116789462,243.0129742915742 125.59443826472852,242.84521520588896 126.01490545045817,242.53765633897274 126.45939933252521,242.28601674332458 126.92791991098784,241.95049655054754 127.0,241.92253649675695" stroke="#4dd2ff" stroke-linecap="round" stroke-linejoin="round" stroke-width="0.5"><title>2018-09-02 5.9km</title><desc>9223370500970671658</desc></polyline><polyline fill="none" points="133.0,243.30624096252723 133.6227347610984,243.57240798791463 134.2200517769088,243.80900048183685 134.8173687926028,244.08995355795196 135.4528124264325,244.35611911895103 136.1009649329353,244.62228418256564 136.7364085666486,244.88844874881033 137.44810543651693,245.16939969589293 138.05813132500043,245.40598953732115 138.66815721342573,245.65736581328383 139.27818310185103,245.90874164561683 139.90091786300763,246.16011703437835 140.61261473281775,246.45585221794317 141.26076723926235,246.7220133581868 141.89621087315027,247.00296068897296 142.59519887028728,247.3282674323127 143.2814779948094,247.68314666875813 143.85337726521539,248.00845185885555 144.26006119087106,248.30418320522585 144.67945398914162,248.57034089205263 145.2132266415283,248.9400035209983 145.7851259119343,249.35402452661947 146.4332784184371,249.8419763099664 146.82725347141968,250.15249021095224 147.37373499647947,250.53693505546835 147.92021652148105,250.93616514203313 148.54295128257945,251.3945390469744 149.14026829838986,251.82333910674788 149.29277477046708,251.92684237608046 149.29277477046708,251.94162855125614 149.29277477046708,251.94162855125614 149.3944457519101,252.0007732367376 149.4579901152756,252.10427637718385 149.55966109671863,252.1929932947969 149.81383855018066,252.28171015718544 150.38573782064486,252.68093535443768 150.91951047303155,253.05058731732424 151.42786538007203,253.4498103599617 152.02518239588244,253.93774811508774 152.57166392094223,254.39611236283963 153.0800188279245,254.85447513592953 153.39774064481026,255.19454978883732 153.6392092257156,255.40155135410896 154.02047540590866,255.81555358231708 154.13485526002478,255.88948242500192 154.3000706048333,256.0964829805598 154.80842551181559,256.55484028335195 154.98634972929722,256.7766255456809 155.4692868909915,257.2497662847454 155.91409743466647,257.7229054526688 156.30807248759083,258.1369009357295 156.39703459636075,258.1960430494073 156.91809837601613,258.74310643710487 157.13414921151707,258.9944591812673 157.223111320287,259.0683863745653 157.2866556836525,259.15709895594046 157.3756177923642,259.18666980411217 157.52812426444143,259.12752810162783 157.76959284534678,258.96488829319424 157.9475170628284,258.89096104619966 158.22711226169486,258.66917907503375 158.595669569273,258.26997065696924 158.92610025889007,257.84118999913335 159.43445516593056,257.26455190754496 159.93010120023973,256.7618398722843 160.15886090847198,256.45134037612297 160.56554483406944,256.0521257439832 160.74346905149287,255.80076780910895 160.98493763234,255.47548041163827 161.16286184982164,255.2980506090389 161.22640621318715,255.19454978883732 161.73476112022763,254.6770445600123 162.29395151801873,254.10039366212732 162.7895975523279,253.58288445892686 162.89126853371272,253.43502434129186 163.23440809600288,253.10973154239764 163.48858554952312,252.76965191296767 163.75547187571647,252.48871595466335 164.0223582019098,252.16342099504254 164.11132031067973,252.0303455702233 164.37820663681487,251.7641943476483 164.5307131089503,251.57197371097573 164.72134619910503,251.3945390469744 164.79759943514364,251.2910353909101 164.98823252524016,251.09881411583046 165.03906801599078,250.98052397147694 165.52200517768506,250.53693505546835 165.97952459397493,250.04898565250915 166.08119557535974,249.9306946364668 166.20828430220718,249.59060741816938 166.3480819016113,249.3096651906817 166.3862085196306,249.16180063795764 166.71663920924766,248.5999139376654 167.0851965167676,247.9493055158964 167.30124735226855,247.50570716104994 167.72064015059732,246.88466714353126 167.79689338663593,246.78116021071037 167.96210873138625,246.39670523034874 168.2289950576378,245.93831524378038 168.44504589313874,245.53907115047332 168.48317251115805,245.39120268370607 168.82631207339,244.78494036546908 169.00423629087163,244.4892017129023 169.04236290889094,244.38569303945405 169.4490468344884,243.7202783426619 169.67780654266244,243.350602167935 170.0463638502988,242.71475690315128 170.23699694039533,242.58167265130032 170.26241468579974,242.49294974768418 170.32595904916525,242.37465245682688 170.35137679445324,242.25635506774415 170.49117439391557,242.0197599948442 170.52930101199308,241.73880283534527 170.87244057422504,241.05858846991032 171.08849140972598,240.68890538705455 171.40621322661173,240.11219786194852 171.50788420805475,240.00868600765534 171.8510237702867,239.34325086265744 172.21958107786486,238.7221752556652 172.5373028947506,238.1602473728126 172.86773358436767,237.53916660715186 173.19816427392652,236.9476585979719 173.52859496348538,236.29699695050658 173.85902565304423,235.6906959215994 174.1894563426613,235.09918023525097 174.51988703216193,234.46329813232296 174.73593786766287,234.06402187244385 175.10449517529923,233.47249942974304 175.20616615674226,233.2211016475776 175.30783713812707,233.11758478476258 175.61285008233972,232.55563478800468 175.80348317249445,232.27465895810747 176.095787244034,231.6239759602904 176.32454695220804,231.2099034137791 176.48976229695836,230.70709941720997 176.7439397504786,230.20429364535084 176.95999058597954,229.87894778807822 177.3031301482115,229.2282538436557 177.46834549302002,228.90290575644758 177.65897858317476,228.59234552524867 177.68439632852096,228.47403668759216 177.74794069188647,228.38530499482295 177.78606730990577,228.31136187526863 178.12920687219594,227.69023815530818 178.25629559892695,227.49798502623162 178.5104730524472,226.9508016227628 178.91715697810287,226.35924963206344 179.23487879498862,225.94516177635523 179.31113203102723,225.85642850774457 179.48905624850886,225.51628379916656 179.7686514474335,225.10219349202816 179.8194869380677,224.98388175448054 180.2642974817427,224.347954481098 180.429512826493,224.11132965433353 180.56931042595534,223.87470443434722 180.9887032242841,223.29792881313188 181.05224758764962,223.1944047363795 181.10308307834202,223.10566975355323 181.31913391384296,222.79509687809332 181.6368557307287,222.26268465837347 181.67498234874802,222.14437056142197 182.05624852899928,221.67111319040123 182.2087550011347,221.46406259590003 182.32313485525083,221.43448391495622 182.43751470930874,221.44927325617755 182.7679453988676,221.70069182217412 183.16192045185016,222.12958129237813 183.3398446693318,222.24789540164056 183.3398446693318,222.23310614333604 183.56860437744763,222.4845233251981 183.93716168502579,222.79509687809332 184.0388326664688,222.70636164637108 184.6488585549523,222.35142016659665 185.2843021887238,221.96689923161466 185.57660626026336,221.75984906726808 185.881619204476,221.49364127067383 186.4662273475551,221.09432864254632 186.94916450924939,220.81333019588783 187.0,220.8281196016178" stroke="#4dd2ff" stroke-linecap="round" stroke-linejoin="round" stroke-width="0.5"><title>2018-08-31 6.0km</title><desc>9223370501173080825</desc></polyline></svg>