<?xml version="1.0" encoding="utf-8" ?>
<svg baseProfile="full" height="200mm" version="1.1" viewBox="0,0,200,200" width="200mm" xmlns="http://www.w3.org/2000/svg" xmlns:ev="http://www.w3.org/2001/xml-events" xmlns:xlink="http://www.w3.org/1999/xlink"><defs /><rect fill="#1a1a1a" height="200" width="200" x="0" y="0" /><text alignment-baseline="middle" fill="#61bfad" style="dominant-baseline: central; font-size:9.0px; font-family:Arial;" text-anchor="middle" x="100.0" y="100.0">2019</text><line stroke="#61bfad" stroke-width="0.3" x1="100.0" x2="100.0" y1="15.0" y2="10.0" /><path d="M 100.0 14.0 a86.0,86.0 0 0,1 42.46469731375804,11.215312516191453" fill="none" id="id13" stroke="none" /><text fill="#61bfad" style="font-size:6.75px; font-family:Arial;" text-anchor="middle"><textPath startOffset="22.20632615414155" xlink:href="#id13">January</textPath></text><line stroke="#61bfad" stroke-width="0.3" x1="143.23703022742887" x2="145.7803849466894" y1="26.81831364943548" y2="22.513508569990506" /><path d="M 143.74570117128098 25.957352633546492 a86.0,86.0 0 0,1 28.547481713284135,27.462654790039103" fill="none" id="id14" stroke="none" /><text fill="#61bfad" style="font-size:6.75px; font-family:Arial;" text-anchor="middle"><textPath startOffset="19.985693538727396" xlink:href="#id14">February</textPath></text><line stroke="#61bfad" stroke-width="0.3" x1="172.23445277983987" x2="176.4835382374775" y1="55.19839476539836" y2="52.563006222186495" /><path d="M 173.08426987136738 54.67131705675599 a86.0,86.0 0 0,1 12.851231095245387,41.99856678651699" fill="none" id="id15" stroke="none" /><text fill="#61bfad" style="font-size:6.75px; font-family:Arial;" text-anchor="middle"><textPath startOffset="22.20632615414155" xlink:href="#id15">March</textPath></text><line stroke="#61bfad" stroke-width="0.3" x1="184.98032266829074" x2="189.97916517819016" y1="98.17113171792111" y2="98.06355123074" /><path d="M 185.9800911702706 98.14961562048488 a86.0,86.0 0 0,1 -9.607161424134198,41.387399972396054" fill="none" id="id16" stroke="none" /><text fill="#61bfad" style="font-size:6.75px; font-family:Arial;" text-anchor="middle"><textPath startOffset="21.466115282336823" xlink:href="#id16">April</textPath></text><line stroke="#61bfad" stroke-width="0.3" x1="174.80103733775053" x2="179.2010983576182" y1="140.37084112569926" y2="142.7455964860345" /><path d="M 175.68104954172406 140.8457921977663 a86.0,86.0 0 0,1 -30.038265399797805,32.042727171017184" fill="none" id="id17" stroke="none" /><text fill="#61bfad" style="font-size:6.75px; font-family:Arial;" text-anchor="middle"><textPath startOffset="22.206326154141568" xlink:href="#id17">May</textPath></text><line stroke="#61bfad" stroke-width="0.3" x1="143.8653032363475" x2="146.44561519142675" y1="172.8068346515853" y2="177.08958963109032" /><path d="M 144.38136562736335 173.6633856474863 a86.0,86.0 0 0,1 -40.68145358897372,12.25698825130547" fill="none" id="id18" stroke="none" /><text fill="#61bfad" style="font-size:6.75px; font-family:Arial;" text-anchor="middle"><textPath startOffset="21.466115282336833" xlink:href="#id18">June</textPath></text><line stroke="#61bfad" stroke-width="0.3" x1="102.19456741930631" x2="102.32365962044197" y1="184.97166512339345" y2="189.96999836594603" /><path d="M 102.22038585953345 185.97133177190398 a86.0,86.0 0 0,1 -42.740103519485714,-10.115201625700543" fill="none" id="id19" stroke="none" /><text fill="#61bfad" style="font-size:6.75px; font-family:Arial;" text-anchor="middle"><textPath startOffset="22.20632615414155" xlink:href="#id19">July</textPath></text><line stroke="#61bfad" stroke-width="0.3" x1="58.666819895761336" x2="56.23545636021788" y1="174.27360380694188" y2="178.64263932499728" /><path d="M 58.180547188652646 175.14741091055294 a86.0,86.0 0 0,1 -31.652253787137756,-30.449443065178592" fill="none" id="id20" stroke="none" /><text fill="#61bfad" style="font-size:6.75px; font-family:Arial;" text-anchor="middle"><textPath startOffset="22.20632615414155" xlink:href="#id20">August</textPath></text><line stroke="#61bfad" stroke-width="0.3" x1="26.63291911575756" x2="22.317208475507996" y1="142.92168965132927" y2="145.44649492493687" /><path d="M 25.769776987707644 143.4266507060508 a86.0,86.0 0 0,1 -11.730757126820373,-40.83630448921669" fill="none" id="id21" stroke="none" /><text fill="#61bfad" style="font-size:6.75px; font-family:Arial;" text-anchor="middle"><textPath startOffset="21.46611528233685" xlink:href="#id21">September</textPath></text><line stroke="#61bfad" stroke-width="0.3" x1="15.007084014347285" x2="10.007500721073583" y1="101.09737516637583" y2="101.16192664675087" /><path d="M 14.007167355692545 101.11028546245083 a86.0,86.0 0 0,1 10.666146001902534,-42.60595125391555" fill="none" id="id22" stroke="none" /><text fill="#61bfad" style="font-size:6.75px; font-family:Arial;" text-anchor="middle"><textPath startOffset="22.20632615414155" xlink:href="#id22">October</textPath></text><path d="M 79.00175016825051 100.2711162175752 l -20.27562381133154 0.2617861241175623 a41.27731374993776,41.27731374993776 0 0,0 -0.0030578680420387007,-0.7105408421816956 l 20.277125976663083 0.08726419626780856" fill="#ffebcd" stroke="none" /><path d="M 79.32604984820605 96.31383870115002 l -25.829755053428357 -4.605440311969627 a47.23711734522721,47.23711734522721 0 0,0 0.14961631737155748,-0.7992563500110565 l 25.74665301214694 5.049374739443256" fill="#fffdbb" stroke="none" /><path d="M 79.46518482838121 95.60439243477599 l -32.914873643231175 -7.045637683388695 a54.66050976018428,54.66050976018428 0 0,0 0.20486137749792435,-0.9183533860438352 l 32.78871787873122 7.611169238982489" fill="#d8ffa5" stroke="none" /><path d="M 79.54389044137918 95.25157060432595 l -28.609987691037606 -6.641170266158614 a50.3706747996268,50.3706747996268 0 0,0 0.20332290722559565,-0.8429047150414624 l 28.491431983551198 7.132660212859473" fill="#f2ffb2" stroke="none" /><path d="M 79.62865764111835 94.90015583598534 l -59.55673985984555 -14.909674917399325 a82.39465505136292,82.39465505136292 0 0,0 0.35627318633068866,-1.3728659199114404 l 59.291270341644555 15.93263726285963" fill="#52e4ff" stroke="none" /><path d="M 79.71946130924805 94.55025226153421 l -29.347593332560816 -7.886229396188039 a51.38871251801676,51.38871251801676 0 0,0 0.23690986739552786,-0.8522908429466061 l 29.20749669459893 8.390231542553588" fill="#edffaf" stroke="none" /><path d="M 79.81627453868168 94.20196356495316 l -33.174563126047055 -9.52982273219144 a55.51621589790911,55.51621589790911 0 0,0 0.2717495051894457,-0.9162042375833281 l 33.005607723745904 10.099456356521307" fill="#d2ffa2" stroke="none" /><path d="M 79.91906864156998 93.8553929516997 l -27.904402777910306 -8.538527766829816 a50.18153784187482,50.18153784187482 0 0,0 0.25985557411344046,-0.8238131818787109 l 27.753291720028663 9.017591115134941" fill="#f3ffb2" stroke="none" /><path d="M 80.02781315780177 93.51064311812611 l -25.76040953885907 -8.370064442201345 a48.08609751101743,48.08609751101743 0 0,0 0.2625562891698904,-0.7850098858227025 l 25.612515955917406 8.81224743094637" fill="#fdffb9" stroke="none" /><path d="M 80.2630227832202 92.82701384747504 l -59.210931650339425 -21.518958457574875 a84.0,84.0 0 0,0 0.5055816459934896,-1.3547074518826343 l 58.83174541584431 22.534989046486853" fill="#4dd2ff" stroke="none" /><path d="M 80.65960295795068 91.81776055985345 l -48.497319080223924 -20.517504167925427 a73.65888277631694,73.65888277631694 0 0,0 0.504069797979319,-1.1634625916999877 l 48.13695857240193 21.349265904212015" fill="#6cffc6" stroke="none" /><path d="M 80.803312248108 91.48605970444005 l -40.2246796416024 -17.840083940672255 a65.00333450182809,65.00333450182809 0 0,0 0.4624451221061591,-1.0189365271370796 l 39.911632202532886 18.529842476651403" fill="#86ff8f" stroke="none" /><path d="M 80.95270993114464 91.15688171328213 l -37.67039096512407 -17.48929753299648 a62.53232335979987,62.53232335979987 0 0,0 0.4616725884273811,-0.9724002124172079 l 37.36376018285494 18.13514016105422" fill="#96ff8d" stroke="none" /><path d="M 81.10775173730289 90.83032412892265 l -28.478549191733414 -13.82255101328242 a52.65581590451863,52.65581590451863 0 0,0 0.402791884991874,-0.8120038614496305 l 28.236397293788126 14.310714463231012" fill="#e5ffab" stroke="none" /><path d="M 81.26839172434947 90.50648371742162 l -26.71418748733683 -13.539231130332626 a50.94926698116586,50.94926698116586 0 0,0 0.4032041695084115,-0.7788621181807167 l 26.477173884668307 13.997065970773678" fill="#efffb0" stroke="none" /><path d="M 81.43458229118936 90.18545643968196 l -23.471778458027615 -12.408274121681726 a47.549758015121824,47.549758015121824 0 0,0 0.38875753977704625,-0.7203086791690204 l 23.254712819032097 12.81046378418322" fill="#fffeba" stroke="none" /><path d="M 81.6062741919709 89.86733742301443 l -37.75388716103134 -20.797711326398655 a64.10337332720141,64.10337332720141 0 0,0 0.5407344167758259,-0.9619061906765647 l 37.39029510296308 21.444501027010002" fill="#89ff8b" stroke="none" /><line stroke="#61bfad" stroke-width="0.3" x1="26.266209847984243" x2="21.928928074336255" y1="57.711370442889674" y2="55.22380399835377" /><path d="M 25.398753493254645 57.213857153982495 a86.0,86.0 0 0,1 29.58750427330803,-30.492523968695096" fill="none" id="id23" stroke="none" /><text fill="#61bfad" style="font-size:6.75px; font-family:Arial;" text-anchor="middle"><textPath startOffset="21.46611528233685" xlink:href="#id23">November</textPath></text><path d="M 81.78341655067845 89.55222093294921 l -24.994919690954763 -14.335366423471612 a49.81403721890557,49.81403721890557 0 0,0 0.43300336047077953,-0.7401431031460962 l 24.744456656013657 14.7634889389716" fill="#f5ffb3" stroke="none" /><path d="M 81.96595687620814 89.24020034530311 l -25.273870766860288 -15.0793576395163 a50.43052106844854,50.43052106844854 0 0,0 0.4511951520455034,-0.7416461961855481 l 25.010559816528566 15.512171608908922" fill="#f2ffb2" stroke="none" /><path d="M 82.15384107792192 88.93136811851018 l -25.88767824996144 -16.056182289219898 a51.462647207328935,51.462647207328935 0 0,0 0.4733887268850346,-0.7487872813834673 l 25.607461926830442 16.499417218317582" fill="#ecffae" stroke="none" /><line stroke="#61bfad" stroke-width="0.3" x1="56.762969772571076" x2="54.21961505331055" y1="26.818313649435495" y2="22.513508569990535" /><path d="M 56.25429882871897 25.957352633546506 a86.0,86.0 0 0,1 42.265352541879196,-11.944610805530505" fill="none" id="id24" stroke="none" /><text fill="#61bfad" style="font-size:6.75px; font-family:Arial;" text-anchor="middle"><textPath startOffset="22.20632615414155" xlink:href="#id24">December</textPath></text></svg>